<svg version="1.1" id="Layer_1" xmlns="http://www.w3.org/2000/svg" xmlns:xlink="http://www.w3.org/1999/xlink" x="0px" y="0px"
	 width="100%" viewBox="0 0 824 303" enable-background="new 0 0 824 303" xml:space="preserve">
<path fill="#010101" opacity="1.000000" stroke="none" 
	d="
M533.000000,304.000000 
	C355.372620,304.000000 178.245255,304.000000 1.058940,304.000000 
	C1.058940,203.061722 1.058940,102.123405 1.058940,1.092541 
	C275.544006,1.092541 550.088074,1.092541 824.816040,1.092541 
	C824.816040,101.999733 824.816040,202.999832 824.816040,304.000000 
	C727.790100,304.000000 630.645020,304.000000 533.000000,304.000000 
M692.104919,187.914001 
	C692.104919,187.914001 692.202515,187.901474 692.143311,187.233490 
	C691.236755,186.037811 690.330139,184.842117 688.989258,183.935532 
	C689.131531,183.834808 689.273743,183.734070 689.277527,182.954849 
	C685.565063,178.239822 681.852661,173.524796 678.087402,168.916168 
	C678.087402,168.916168 678.195007,168.865845 678.142578,168.186493 
	C677.116516,167.088486 676.090454,165.990479 675.039795,164.969315 
	C675.039795,164.969315 675.119812,164.979782 675.022644,164.207672 
	C676.468750,163.134537 677.778748,161.759430 679.382751,161.036575 
	C691.109619,155.751633 701.998840,149.399780 709.405823,138.343491 
	C709.405823,138.343491 709.522034,138.387512 710.094482,138.083466 
	C722.045654,121.431908 722.619690,96.109978 711.097656,82.006447 
	C711.097656,82.006447 711.395081,81.682564 711.266785,81.008156 
	C704.719482,71.918808 695.876038,66.719635 684.013611,65.060097 
	C678.941406,64.759590 673.815552,64.818771 668.809814,64.072495 
	C661.676514,63.009033 657.724670,66.068428 655.297791,73.040604 
	C650.674866,81.383774 646.052002,89.726936 640.995300,98.853058 
	C645.484009,98.853058 649.054688,98.914818 652.622803,98.842628 
	C670.303040,98.484894 679.040527,112.374817 670.989563,127.985092 
	C670.989563,127.985092 670.943298,127.912346 670.296082,128.176788 
	C663.383850,133.987640 655.198792,136.673645 646.380554,136.934982 
	C633.237244,137.324509 620.077759,137.168121 606.113037,137.068527 
	C604.733459,137.116241 603.353821,137.163956 601.314514,136.889542 
	C578.023010,136.856064 554.731262,136.855484 531.440125,136.745132 
	C528.703735,136.732178 527.304077,137.284775 526.792603,140.377579 
	C524.324463,155.302200 521.561584,170.177902 518.941772,185.077728 
	C517.809326,191.518539 516.769775,197.975677 515.668152,204.543762 
	C529.842712,204.543762 543.272217,204.543762 557.114319,204.543762 
	C559.026062,192.584229 561.060303,180.817337 562.700073,168.995728 
	C563.172241,165.592072 564.356384,164.625793 567.726135,164.681778 
	C586.695251,164.996902 605.668030,165.151764 624.639771,165.171387 
	C627.665771,165.174530 629.476135,166.147049 631.147034,168.624054 
	C634.765686,173.988358 638.722473,179.124557 642.871033,184.182220 
	C642.871033,184.182220 642.565674,184.394806 642.701843,185.070679 
	C644.993835,188.166550 647.285767,191.262405 650.002747,194.079102 
	C649.861450,194.174973 649.720093,194.270859 649.700684,195.040817 
	C651.323975,197.167282 652.947205,199.293747 654.603821,201.195862 
	C654.603821,201.195862 654.553406,201.428223 654.702515,202.128464 
	C656.528870,206.326202 659.710876,207.334381 664.187256,207.236328 
	C677.997925,206.933868 691.819519,207.125992 705.636841,207.125992 
	C705.815552,206.663971 705.994263,206.201950 706.172974,205.739929 
	C704.280701,203.360382 702.388489,200.980835 700.244507,198.776611 
	C700.244507,198.776611 700.456360,198.554703 700.283020,197.903412 
	C698.379517,195.461060 696.476013,193.018707 694.479858,190.569061 
	C694.479858,190.569061 694.497620,190.477844 694.345520,189.874100 
	C693.607483,189.189133 692.869446,188.504181 692.104919,187.914001 
M255.380661,204.570328 
	C255.952499,203.391785 256.524353,202.213242 257.019348,201.028915 
	C257.019348,201.028915 257.050079,201.099564 257.635437,200.749435 
	C260.492706,195.523514 263.349976,190.297592 266.091248,185.067307 
	C266.091248,185.067307 266.119446,185.179901 266.748718,184.895248 
	C267.903503,182.619522 269.058289,180.343811 270.091461,178.068680 
	C270.091461,178.068680 270.124786,178.185654 270.755341,177.910690 
	C273.177246,173.693146 275.599121,169.475586 278.524628,164.771744 
	C288.264709,148.085754 298.004791,131.399765 308.086884,114.127808 
	C275.177582,114.127808 243.361145,114.115334 211.544846,114.176918 
	C210.366531,114.179199 208.584839,114.543053 208.104752,115.347435 
	C202.770386,124.285065 197.637573,133.342987 191.985199,143.177734 
	C203.725204,143.177734 214.484467,143.177734 225.243729,143.177734 
	C236.146530,143.177734 247.049316,143.177734 258.789703,143.177734 
	C253.914337,151.541580 249.580063,159.159683 244.987198,166.618576 
	C244.431061,167.521744 242.481491,167.944901 241.174545,167.951401 
	C219.517059,168.059174 197.859085,168.074219 176.201218,168.088974 
	C165.217316,168.096466 156.769806,162.082504 153.066299,151.674500 
	C143.385330,124.467964 161.725143,98.432526 190.587692,98.431671 
	C228.242447,98.430550 265.907837,97.955589 303.545166,98.769897 
	C314.194305,99.000305 320.308014,96.088051 324.502106,86.429497 
	C327.760345,78.926147 332.624084,72.119980 337.154572,64.351799 
	C334.626923,64.351799 333.009308,64.351868 331.391693,64.351784 
	C286.240112,64.349472 241.087555,64.510391 195.937531,64.244659 
	C182.507416,64.165619 169.829575,66.829697 157.462784,71.657204 
	C123.498543,84.915482 105.596725,110.270470 106.843513,144.002548 
	C107.733818,168.089905 116.704147,187.648575 139.708450,199.340775 
	C140.190002,199.504501 140.671539,199.668213 141.665955,200.279785 
	C148.142075,201.909515 154.618195,203.539246 161.706024,205.489761 
	C162.160065,205.458588 162.614105,205.427414 163.947159,205.710083 
	C181.675507,205.735657 199.403915,205.802582 217.132156,205.769470 
	C226.064178,205.752792 234.995850,205.554611 244.807083,205.622009 
	C246.899857,205.520218 248.992615,205.418442 251.698654,205.597046 
	C252.362167,205.535141 253.025696,205.473236 254.171997,205.613571 
	C254.392883,205.389618 254.613770,205.165665 255.380661,204.570328 
M238.759750,233.790619 
	C238.759750,233.790619 239.057358,234.064987 239.009598,234.838974 
	C239.708191,236.090118 240.334229,237.390259 241.133438,238.573425 
	C241.588669,239.247299 242.326706,239.730148 242.937378,240.299026 
	C243.373428,239.561279 244.166626,238.833176 244.186813,238.084213 
	C244.306000,233.659760 244.245544,229.230438 244.245544,224.750305 
	C237.860901,224.750305 232.011169,224.750305 225.988983,224.750305 
	C225.988983,230.021027 225.988983,234.940155 225.988983,241.264450 
	C227.564758,239.818954 228.689697,239.227417 229.085846,238.318314 
	C229.651688,237.019684 229.684006,235.488571 230.234802,233.782288 
	C230.234802,233.782288 230.251297,233.382874 231.098984,233.356079 
	C233.643051,233.366348 236.187103,233.376602 238.759750,233.790619 
M470.901611,235.547958 
	C470.631195,236.815094 470.360809,238.082230 470.035339,239.607407 
	C473.370178,237.548462 476.597870,234.697266 479.680176,239.539001 
	C480.478485,238.975891 481.276825,238.412781 482.717194,237.316437 
	C485.072021,237.961029 488.016510,239.756180 489.619843,238.934464 
	C491.304932,238.070862 491.875336,234.754059 492.597656,232.406158 
	C492.964569,231.213425 492.594604,229.793991 493.236267,227.988953 
	C494.364563,228.039627 495.492859,228.090302 496.651550,228.142334 
	C496.926361,232.203400 497.187531,236.062729 497.448700,239.922043 
	C498.136108,239.883606 498.823517,239.845184 499.510925,239.806747 
	C499.510925,236.041504 499.510925,232.276276 499.510925,228.089752 
	C501.607910,228.089752 502.858154,228.089752 504.529816,228.868225 
	C504.522339,231.014999 503.976501,233.357925 504.666077,235.250778 
	C505.295197,236.977631 507.053925,238.984024 508.705566,239.434525 
	C510.094269,239.813293 513.456360,238.206512 513.502563,237.347427 
	C513.700256,233.669479 514.168701,229.138489 512.319458,226.438095 
	C510.016144,223.074585 506.579437,225.954681 503.859772,227.293030 
	C502.927094,226.526779 502.025452,225.155945 501.056030,225.106216 
	C497.997375,224.949387 494.913300,225.287735 491.067169,225.372055 
	C490.736176,227.883286 490.660706,230.466370 489.982269,232.879944 
	C489.545959,234.432175 488.222900,235.735153 487.297272,237.149841 
	C486.487976,235.768173 485.201904,234.459793 484.975677,232.988464 
	C484.589813,230.478882 484.869324,227.867020 484.869324,225.298111 
	C483.938751,225.305710 483.008148,225.313309 482.077576,225.320908 
	C482.077576,229.504120 482.077576,233.687332 481.375214,237.784897 
	C480.583496,235.856537 479.791809,233.928177 478.828949,231.292709 
	C477.957764,229.241592 477.086578,227.190475 476.215393,225.139359 
	C475.708405,225.090790 475.201416,225.042236 474.694397,224.993668 
	C473.530823,228.296280 472.367218,231.598892 470.901611,235.547958 
M634.690308,227.386810 
	C633.304871,227.454758 630.737671,227.383667 630.710876,227.611481 
	C630.298401,231.117203 630.216614,234.661804 630.040771,238.579651 
	C632.179688,238.454254 633.572510,238.372604 635.397888,238.265610 
	C635.397888,235.265274 635.397888,232.635757 636.200562,230.122589 
	C639.783386,229.569061 643.697327,229.993530 646.595398,227.417877 
	C646.483398,226.966476 646.371338,226.515060 646.259338,226.063660 
	C642.531921,226.694473 638.804565,227.325287 634.690308,227.386810 
M316.064514,237.073593 
	C316.952057,237.940933 317.839600,238.808273 319.227112,240.164215 
	C319.227112,234.470856 319.227112,229.919449 319.227112,225.368042 
	C318.677948,225.365509 318.128754,225.362976 317.579590,225.360443 
	C317.579590,227.640717 317.579590,229.920990 317.153931,232.849503 
	C314.869843,230.267426 312.585724,227.685349 309.784180,224.518311 
	C309.784180,230.129990 309.784180,234.827454 309.784180,239.524918 
	C310.215027,239.544464 310.645874,239.564026 311.076721,239.583572 
	C311.390930,237.050446 311.705109,234.517319 312.094543,231.377487 
	C313.670776,233.475433 314.744690,234.904785 316.064514,237.073593 
M553.911377,227.949020 
	C553.911377,231.780411 553.911377,235.611801 553.911377,239.443207 
	C554.673584,239.412888 555.435730,239.382584 556.197937,239.352280 
	C556.197937,235.025024 556.208862,230.697525 556.110229,226.372498 
	C556.108459,226.295914 554.792297,226.249313 553.228333,226.227890 
	C549.576050,225.779526 545.923706,225.331161 542.271423,224.882812 
	C542.185364,225.509308 542.099243,226.135803 542.013123,226.762299 
	C543.335144,227.367722 544.657104,227.973145 546.561157,228.845139 
	C546.561157,232.432785 546.561157,236.063522 546.561157,239.694260 
	C547.186218,239.732880 547.811218,239.771500 548.436279,239.810120 
	C548.677124,235.946808 548.917969,232.083496 549.160095,228.200684 
	C550.809875,227.800613 552.393921,227.416489 553.911377,227.949020 
M299.399567,231.799927 
	C298.269470,228.597275 300.303131,228.229965 302.693024,227.978333 
	C304.198547,227.819809 305.670288,227.341064 307.157196,227.005966 
	C307.071686,226.508530 306.986145,226.011078 306.900635,225.513641 
	C303.712708,225.513641 300.524780,225.513641 297.372803,225.513641 
	C297.372803,230.448380 297.372803,234.862701 297.372803,239.204346 
	C304.508514,240.751831 305.858490,240.466522 306.295715,238.009811 
	C304.022064,237.657425 301.727173,237.406891 299.538574,236.783264 
	C299.341919,236.727219 299.832703,234.258698 300.811310,232.997604 
	C302.023102,232.931274 303.234924,232.864944 304.446716,232.798615 
	C304.421967,232.576141 304.397217,232.353653 304.372437,232.131165 
	C302.953278,232.131165 301.534119,232.131165 299.399567,231.799927 
M453.781891,236.730148 
	C454.112823,237.638474 454.603638,239.362335 454.750824,239.333466 
	C457.176208,238.857880 461.231232,238.677368 461.620850,237.413437 
	C462.595032,234.253494 462.552734,230.370712 461.542419,227.219040 
	C461.162201,226.032974 456.986603,226.063568 454.541260,225.539505 
	C454.358276,226.704117 454.175293,227.868729 453.940765,229.909576 
	C453.969910,231.960114 453.999054,234.010635 453.781891,236.730148 
M269.899750,239.324203 
	C270.640198,238.683914 271.988007,238.073715 272.021454,237.398422 
	C272.222260,233.344376 272.121094,229.275375 272.121094,225.346298 
	C265.924255,225.346298 260.390076,225.346298 254.762009,225.346298 
	C254.762009,229.165833 254.888123,232.650803 254.719788,236.121490 
	C254.597733,238.638031 255.579575,239.425262 258.647095,239.177490 
	C259.424164,238.940979 260.849030,238.760910 260.875336,238.458984 
	C261.077118,236.142853 260.618774,233.710358 261.146271,231.500381 
	C261.556793,229.780518 263.090057,228.328674 264.501770,226.963318 
	C264.501770,226.963318 264.905396,227.111053 265.281036,227.847977 
	C265.541412,231.913834 265.801758,235.979706 266.108398,240.768326 
	C266.948853,240.301773 267.971771,239.733917 269.899750,239.324203 
M576.205322,233.456436 
	C577.833069,235.508606 579.460876,237.560776 581.533691,240.173981 
	C581.533691,234.591187 581.533691,229.992035 581.533691,225.392883 
	C581.045654,225.395050 580.557617,225.397202 580.069580,225.399353 
	C580.069580,228.108826 580.069580,230.818314 580.069580,234.898376 
	C577.124146,230.724106 575.086548,227.836441 572.331299,223.931702 
	C572.331299,230.269089 572.331299,234.881897 572.331299,239.494720 
	C572.756409,239.503235 573.181580,239.511765 573.606689,239.520294 
	C573.883179,237.842285 574.159607,236.164291 575.100037,233.759018 
	C575.298035,233.497269 575.496094,233.235519 576.205322,233.456436 
M422.940765,132.906586 
	C415.778259,143.737625 408.615753,154.568680 401.453247,165.399719 
	C401.061035,165.212738 400.668823,165.025742 400.276611,164.838760 
	C400.737823,154.936188 401.199036,145.033630 401.872070,134.240204 
	C403.462433,111.068863 405.052795,87.897530 406.668762,64.352783 
	C387.787384,64.352783 369.650391,64.302612 351.515320,64.462830 
	C350.273438,64.473808 348.550720,65.778816 347.883331,66.954254 
	C330.288666,97.942123 312.803741,128.992279 294.846069,160.433685 
	C286.457031,175.239136 278.067993,190.044571 269.223450,205.653961 
	C285.274506,205.653961 300.196167,205.703735 315.115906,205.556458 
	C316.270111,205.545074 317.922241,204.418564 318.481354,203.356689 
	C327.998291,185.281982 337.378967,167.135529 347.186340,148.419403 
	C355.328949,133.070450 363.471527,117.721481 371.614105,102.372520 
	C372.098724,102.540001 372.583313,102.707481 373.067902,102.874962 
	C372.164276,115.886909 371.260651,128.898865 370.104309,142.456970 
	C368.434418,163.398453 366.764496,184.339951 365.058044,205.739853 
	C380.620697,205.739853 395.397675,205.781693 410.173126,205.649979 
	C411.208984,205.640747 412.557709,204.571442 413.215302,203.618515 
	C426.336060,184.605362 439.376434,165.536713 452.951569,146.068604 
	C459.252808,136.780548 465.554047,127.492485 472.331207,117.691322 
	C476.221344,112.152824 480.111450,106.614326 484.001587,101.075829 
	C484.319458,101.252502 484.637329,101.429184 484.955200,101.605858 
	C484.094330,105.947182 483.233459,110.288498 482.002380,115.105507 
	C475.415680,145.206390 468.828949,175.307281 462.213684,205.538513 
	C476.837616,205.538513 490.415741,205.538513 504.137665,205.538513 
	C504.544617,203.767242 504.927216,202.332230 505.200745,200.876724 
	C508.457062,183.549622 511.760773,166.231049 514.921753,148.886475 
	C517.545288,134.490494 519.995789,120.062965 522.752441,104.891754 
	C525.268127,91.539963 527.783875,78.188164 530.393677,64.337013 
	C509.920959,64.337013 490.125122,64.299637 470.330383,64.429993 
	C469.144684,64.437798 467.540985,65.504753 466.849945,66.552521 
	C453.386902,86.964821 440.030823,107.447655 426.087585,128.181641 
	C425.211029,129.619110 424.334473,131.056595 422.940765,132.906586 
M570.513550,92.049782 
	C575.462524,82.991096 580.411560,73.932419 585.835327,64.004601 
	C575.796387,64.004601 567.143127,63.865456 558.503601,64.147423 
	C557.132141,64.192184 555.409363,65.875854 554.559082,67.243362 
	C551.574341,72.043800 548.873718,77.022491 546.114380,81.961006 
	C543.102600,87.351471 540.145508,92.772507 536.812927,98.817970 
	C545.273071,98.817970 552.616760,98.464661 559.907043,98.936783 
	C565.146545,99.276100 568.535278,97.744217 570.513550,92.049782 
M607.471924,85.050697 
	C611.156738,78.308716 614.841553,71.566742 618.945007,64.058739 
	C610.630554,64.058739 603.334595,63.983837 596.043640,64.140884 
	C594.970947,64.163986 593.456970,65.022720 592.933105,65.942474 
	C586.896240,76.541183 581.011169,87.226357 574.876648,98.264816 
	C577.531921,98.679970 579.443176,99.146568 581.370850,99.228683 
	C582.999084,99.298035 584.755005,98.460052 586.268005,98.815941 
	C597.744873,101.515549 603.615417,95.546036 607.471924,85.050697 
M619.539429,98.699341 
	C623.205017,98.698837 626.876282,98.812096 630.532959,98.630844 
	C631.680908,98.573936 633.348328,98.042427 633.831543,97.191032 
	C639.877625,86.537727 645.749695,75.785599 652.093384,64.284645 
	C643.834534,64.284645 636.556091,64.128380 629.296082,64.423676 
	C627.933167,64.479118 626.183167,66.068588 625.397217,67.410240 
	C621.275574,74.446114 617.388733,81.620209 613.458191,88.767090 
	C611.753784,91.866280 610.140137,95.015381 608.190308,98.699226 
	C612.258423,98.699226 615.412415,98.699226 619.539429,98.699341 
M669.271851,225.408417 
	C668.259216,225.276993 666.909241,224.663193 666.290955,225.095596 
	C663.221313,227.242523 660.344543,229.665268 658.542419,231.088516 
	C659.445374,234.910049 660.086243,237.622147 660.759399,240.470978 
	C665.335876,240.470978 669.942749,240.470978 674.985474,240.470978 
	C674.854187,238.026520 674.736877,235.841919 674.619934,233.664764 
	C675.526245,233.316498 676.477173,232.951080 678.232788,232.276459 
	C675.016296,229.819717 672.413330,227.831558 669.271851,225.408417 
M438.948090,235.496429 
	C438.801849,236.654877 438.655609,237.813339 438.509369,238.971786 
	C438.049866,239.040588 437.590363,239.109375 437.130859,239.178177 
	C435.489471,234.488953 433.848053,229.799728 432.206635,225.110504 
	C431.539459,225.081406 430.872284,225.052322 430.205109,225.023224 
	C429.198334,229.421585 428.193848,233.820496 427.173645,238.215729 
	C427.142822,238.348587 426.961304,238.467453 426.823883,238.548676 
	C426.687042,238.629593 426.517181,238.654785 426.361786,238.704391 
	C426.421967,238.791321 426.482117,238.878250 426.648376,239.118469 
	C428.676453,236.492722 430.596252,233.430313 434.567871,236.115814 
	C436.494507,237.418564 438.436157,238.699142 440.371002,239.989761 
	C440.771210,239.606766 441.171417,239.223785 441.571625,238.840790 
	C441.571625,236.348663 441.571625,233.856522 441.571625,230.321320 
	C444.328552,234.156586 446.391663,237.026642 448.454773,239.896683 
	C448.731018,239.630661 449.007294,239.364639 449.283569,239.098618 
	C449.283569,234.533966 449.283569,229.969299 449.283569,225.404648 
	C448.851990,225.386047 448.420441,225.367447 447.988861,225.348846 
	C447.741028,227.939758 447.493225,230.530655 447.187195,233.729919 
	C444.583832,230.557114 442.402435,227.898621 440.221069,225.240128 
	C439.796661,225.417633 439.372253,225.595139 438.947845,225.772644 
	C438.947845,228.687805 438.947845,231.602982 438.948090,235.496429 
M523.902832,237.162659 
	C524.689148,235.819412 525.475403,234.476181 526.539856,232.657806 
	C526.910095,235.420914 527.186279,237.481903 527.462463,239.542892 
	C527.886230,239.498932 528.309937,239.454987 528.733643,239.411026 
	C528.733643,234.753067 528.733643,230.095108 528.733643,225.437149 
	C528.363098,225.314423 527.992554,225.191696 527.622009,225.068970 
	C526.179199,227.762314 524.736389,230.455658 523.154968,233.407715 
	C521.462219,230.356384 519.989563,227.701767 518.516907,225.047134 
	C518.183105,225.239319 517.849304,225.431488 517.515503,225.623672 
	C517.515503,230.220993 517.515503,234.818329 517.515503,239.415649 
	C517.880981,239.465759 518.246460,239.515854 518.612000,239.565964 
	C519.043457,237.648071 519.474976,235.730179 519.939392,233.666183 
	C521.260864,235.190430 522.269775,236.354202 523.902832,237.162659 
M349.016998,225.859787 
	C348.836456,228.229034 348.655914,230.598297 348.398285,233.978897 
	C345.814423,230.410583 343.855133,227.704819 341.202209,224.041122 
	C341.202209,230.246658 341.202209,234.832962 341.202209,239.419250 
	C341.677368,239.425339 342.152557,239.431427 342.627716,239.437515 
	C342.764801,236.725983 342.901855,234.014450 343.070282,230.682297 
	C345.580170,234.216324 347.595490,237.054031 349.610809,239.891724 
	C350.141174,239.752319 350.671509,239.612930 351.201874,239.473526 
	C351.201874,236.768906 351.399536,234.044937 351.137024,231.366028 
	C350.939819,229.353668 350.151550,227.399231 349.016998,225.859787 
M385.939392,239.817261 
	C386.473480,239.537537 387.503540,239.150177 387.469604,238.993698 
	C386.459503,234.338333 385.343994,229.705856 384.187714,224.827271 
	C381.626343,225.055801 379.378204,225.256393 377.622681,225.413040 
	C377.622681,230.615402 377.622681,235.217377 377.622681,239.819366 
	C378.132935,239.889069 378.643219,239.958786 379.153473,240.028488 
	C379.615967,238.059860 380.078461,236.091232 380.540955,234.122604 
	C380.985840,233.943283 381.430756,233.763977 381.875641,233.584671 
	C383.031799,235.594086 384.187988,237.603516 385.939392,239.817261 
M398.833801,231.760468 
	C400.724030,234.457260 402.614288,237.154053 404.504517,239.850861 
	C404.776642,239.654831 405.048767,239.458786 405.320892,239.262756 
	C405.320892,234.651993 405.320892,230.041229 405.320892,225.430450 
	C404.902100,225.409454 404.483276,225.388443 404.064484,225.367432 
	C403.807037,227.961624 403.549622,230.555832 403.245636,233.619034 
	C400.626648,230.533264 398.384155,227.891068 396.141632,225.248886 
	C395.739227,225.573730 395.336823,225.898590 394.934387,226.223450 
	C395.436737,230.523941 393.973053,235.060883 396.333954,240.558350 
	C397.104095,236.493958 397.592102,233.918411 398.833801,231.760468 
M361.051422,227.888718 
	C361.934845,227.437454 362.818268,226.986191 363.701721,226.534927 
	C363.556854,226.179153 363.412018,225.823395 363.267181,225.467621 
	C360.243347,225.467621 357.219543,225.467621 354.118469,225.467621 
	C354.118469,230.317810 354.118469,234.732971 354.118469,239.838501 
	C357.445343,239.652542 360.480469,239.482895 363.515564,239.313248 
	C363.493347,238.705994 363.471130,238.098740 363.448914,237.491486 
	C361.289124,237.208771 359.129364,236.926071 356.969604,236.643356 
	C356.823608,236.147095 356.677612,235.650848 356.531647,235.154587 
	C358.517609,234.445816 360.503571,233.737045 363.627777,232.622055 
	C361.789948,231.828629 360.896759,231.454086 360.012939,231.058563 
	C358.966125,230.590088 357.927368,230.103531 356.885132,229.624832 
	C357.994934,229.042755 359.104736,228.460693 361.051422,227.888718 
M330.696930,226.387863 
	C324.914581,223.977737 322.507996,225.926331 322.484436,232.820969 
	C322.471680,236.558945 323.237915,239.604340 327.711304,239.692917 
	C331.156464,239.761124 332.756500,236.903976 332.160645,231.617844 
	C330.593597,231.784882 329.037170,231.950775 327.744049,232.088608 
	C328.557617,233.960266 329.071686,235.142914 329.585754,236.325562 
	C328.374054,236.457474 327.162354,236.589386 325.950653,236.721298 
	C325.802277,234.038544 325.653900,231.355804 325.505524,228.673050 
	C327.178467,228.962814 328.848907,229.268250 330.525970,229.531830 
	C330.969574,229.601547 331.433441,229.542358 332.388245,229.542358 
	C331.889648,228.484192 331.516785,227.692841 330.696930,226.387863 
M701.284363,232.808350 
	C701.039001,231.304337 700.793640,229.800339 700.690613,229.169052 
	C696.371338,231.245773 692.366333,233.171341 688.096863,235.224075 
	C690.732117,238.771500 693.279419,241.047531 697.740845,239.282547 
	C700.479004,238.199341 702.521057,237.003326 701.284363,232.808350 
M415.869385,228.915298 
	C416.445587,229.155029 417.021790,229.394775 417.597992,229.634521 
	C417.695648,228.931992 418.044495,227.700745 417.851837,227.609192 
	C416.040039,226.748306 414.046234,225.317413 412.277344,225.524399 
	C408.946625,225.914139 407.134430,230.843582 408.919952,235.631851 
	C409.580475,237.403290 412.475006,239.581284 414.209290,239.465012 
	C418.325256,239.189026 419.216309,235.880142 418.596527,231.677994 
	C416.826416,231.780472 415.196747,231.874817 413.334106,231.982651 
	C414.415039,233.796295 415.093201,234.934158 415.771362,236.072006 
	C414.598663,236.319107 413.425995,236.566208 412.253296,236.813309 
	C411.861572,234.470490 411.195190,232.116928 411.286041,229.792969 
	C411.306732,229.262909 413.943512,228.835098 415.869385,228.915298 
M563.572632,225.216995 
	C559.210938,227.059082 557.113770,234.610641 560.230103,237.907761 
	C562.484314,240.292709 565.303345,240.528915 567.720581,238.127640 
	C571.196838,234.674438 569.120300,227.043274 563.572632,225.216995 
M371.226105,226.162888 
	C369.468689,225.993698 367.711273,225.824493 365.798279,225.640320 
	C365.798279,230.215088 365.798279,234.753494 365.798279,238.995544 
	C369.116455,238.995544 372.045746,238.995544 374.975037,238.995544 
	C374.987061,238.498535 374.999115,238.001541 375.011169,237.504532 
	C372.865112,237.266281 370.719055,237.028030 368.423401,236.773178 
	C368.423401,233.787949 368.423401,230.906769 368.423401,227.807480 
	C370.251251,227.807480 371.772522,227.986099 373.209869,227.716888 
	C373.761536,227.613586 374.121826,226.488785 374.569336,225.829468 
	C373.716888,225.928040 372.864471,226.026596 371.226105,226.162888 
M611.774170,238.053894 
	C613.163147,237.962799 614.552185,237.871689 615.623047,237.801453 
	C615.623047,233.637909 615.623047,230.025772 615.623047,226.318909 
	C614.020813,226.318909 612.740662,226.318909 611.706238,226.318909 
	C610.869873,230.183884 610.073364,233.798309 609.373047,237.431274 
	C609.352844,237.536331 610.350830,237.837662 611.774170,238.053894 
M213.647186,225.919693 
	C213.002167,226.069916 212.363266,226.311935 211.711136,226.355438 
	C207.524063,226.634857 205.929825,228.540512 206.082031,232.993668 
	C206.238586,237.574280 208.666611,238.096436 212.153351,238.159256 
	C213.199188,238.178101 214.236938,238.646149 216.720154,239.271469 
	C215.888199,234.230179 215.204422,230.086777 213.647186,225.919693 
M202.740891,230.795517 
	C202.570953,229.534439 202.775177,227.404404 202.173752,227.145432 
	C195.469223,224.258621 194.003708,225.344711 194.007416,232.801147 
	C194.008347,234.673019 194.007553,236.544891 194.007553,238.890198 
	C200.891312,236.843765 195.998840,231.153351 199.171707,227.815002 
	C200.121704,228.620499 201.126190,229.472183 202.740891,230.795517 
M167.015152,231.495697 
	C166.715820,229.064011 167.442596,227.709045 170.240845,227.970642 
	C173.991165,228.321259 177.761047,228.462845 181.522522,228.694183 
	C182.043137,228.208481 182.563751,227.722778 183.084351,227.237091 
	C181.938049,226.830414 180.761307,226.008698 179.650803,226.090164 
	C175.254318,226.412689 170.878571,227.017990 166.347794,227.535278 
	C166.347794,230.898438 166.347794,234.269501 166.347794,237.448166 
	C171.396469,237.448166 176.066605,237.448166 180.736755,237.448166 
	C177.597900,236.693787 174.510513,236.702682 171.453293,237.010880 
	C167.859634,237.373169 166.542435,235.814819 167.015152,231.495697 
M337.411621,232.484390 
	C337.270142,230.119583 337.128662,227.754761 336.987213,225.389954 
	C336.583893,225.435165 336.180603,225.480377 335.777283,225.525574 
	C335.777283,230.146088 335.777283,234.766586 335.777283,239.387100 
	C336.318970,239.388412 336.860657,239.389725 337.402344,239.391022 
	C337.402344,237.381104 337.402344,235.371185 337.411621,232.484390 
M389.972717,238.494797 
	C390.626343,238.684860 391.279999,238.874908 391.933624,239.064972 
	C391.933624,234.517319 391.933624,229.969681 391.933624,225.422028 
	C391.257172,225.417740 390.580688,225.413437 389.904236,225.409134 
	C389.904236,229.494568 389.904236,233.580002 389.972717,238.494797 
M162.988235,231.573669 
	C162.861389,229.765198 162.734543,227.956726 162.560333,225.473114 
	C159.270203,229.093964 159.419266,236.332611 162.973450,239.173706 
	C162.973450,236.518646 162.973450,234.494186 162.988235,231.573669 
M180.988464,234.802109 
	C180.677567,234.219269 180.366669,233.636429 180.055771,233.053574 
	C179.539871,233.335617 179.023987,233.617661 178.508087,233.899704 
	C179.112061,234.255020 179.716019,234.610336 180.988464,234.802109 
M535.849426,235.950714 
	C536.821655,235.867188 537.793884,235.783676 538.766113,235.700150 
	C538.726013,235.404678 538.685852,235.109207 538.645691,234.813736 
	C537.519287,235.013458 536.392822,235.213181 535.849426,235.950714 
M200.524918,237.401031 
	C200.819656,237.127090 201.114410,236.853165 201.409134,236.579208 
	C201.303040,236.475052 201.115265,236.271210 201.102829,236.281372 
	C200.806168,236.524429 200.528320,236.790451 200.524918,237.401031 
z"/>
<path fill="#FBFBFA" opacity="1.000000" stroke="none" 
	d="
M139.417679,198.920959 
	C116.704147,187.648575 107.733818,168.089905 106.843513,144.002548 
	C105.596725,110.270470 123.498543,84.915482 157.462784,71.657204 
	C169.829575,66.829697 182.507416,64.165619 195.937531,64.244659 
	C241.087555,64.510391 286.240112,64.349472 331.391693,64.351784 
	C333.009308,64.351868 334.626923,64.351799 337.154572,64.351799 
	C332.624084,72.119980 327.760345,78.926147 324.502106,86.429497 
	C320.308014,96.088051 314.194305,99.000305 303.545166,98.769897 
	C265.907837,97.955589 228.242447,98.430550 190.587692,98.431671 
	C161.725143,98.432526 143.385330,124.467964 153.066299,151.674500 
	C156.769806,162.082504 165.217316,168.096466 176.201218,168.088974 
	C197.859085,168.074219 219.517059,168.059174 241.174545,167.951401 
	C242.481491,167.944901 244.431061,167.521744 244.987198,166.618576 
	C249.580063,159.159683 253.914337,151.541580 258.789703,143.177734 
	C247.049316,143.177734 236.146530,143.177734 225.243729,143.177734 
	C214.484467,143.177734 203.725204,143.177734 191.985199,143.177734 
	C197.637573,133.342987 202.770386,124.285065 208.104752,115.347435 
	C208.584839,114.543053 210.366531,114.179199 211.544846,114.176918 
	C243.361145,114.115334 275.177582,114.127808 308.086884,114.127808 
	C298.004791,131.399765 288.264709,148.085754 277.853821,164.956161 
	C275.392639,165.372116 273.564148,165.443756 271.817719,165.859787 
	C253.287277,170.274078 234.758163,174.695312 216.257370,179.231613 
	C211.804321,180.323471 207.457016,181.846649 202.720825,183.168671 
	C201.953323,183.307770 201.526093,183.449646 200.720444,183.453537 
	C181.268341,187.886383 162.191299,192.443420 143.132446,197.075302 
	C142.315170,197.273911 141.665848,198.163620 140.676300,198.703049 
	C140.082092,198.756805 139.749893,198.838882 139.417679,198.920959 
z"/>
<path fill="#FBEB05" opacity="1.000000" stroke="none" 
	d="
M601.974243,137.211670 
	C603.353821,137.163956 604.733459,137.116241 606.654114,137.526093 
	C608.917725,138.307526 610.638000,138.896408 612.363220,138.911667 
	C622.512085,139.001480 632.750244,139.780014 642.784607,138.705032 
	C651.191528,137.804367 659.411560,134.854736 667.588013,132.392807 
	C669.025818,131.959885 669.840759,129.458496 670.943298,127.912354 
	C670.943298,127.912346 670.989563,127.985092 671.322693,127.959297 
	C675.691345,124.271751 677.499512,115.551682 675.046326,110.661430 
	C670.602539,101.802628 663.724731,96.690567 653.428284,97.012039 
	C650.719666,97.096596 648.006104,97.024788 644.112427,97.024788 
	C648.861572,88.261757 652.919800,80.773514 657.322510,73.151581 
	C658.398132,72.953568 659.129211,72.889267 660.156250,72.881622 
	C660.935608,72.663513 661.419128,72.388748 662.185059,71.985497 
	C662.875793,71.803802 663.284058,71.750595 663.928223,71.739372 
	C664.511536,71.739975 664.756714,71.559738 665.282715,71.121277 
	C667.482605,70.616905 669.299438,70.231895 671.159668,70.040771 
	C671.411255,70.067650 671.619507,69.900635 672.170654,69.577171 
	C675.209167,68.814590 677.904724,68.208466 680.918945,67.703560 
	C681.785156,67.542259 682.332764,67.279747 683.210693,66.924957 
	C683.995911,66.795273 684.450928,66.757866 685.152832,67.043915 
	C693.653625,68.017471 700.164673,72.184784 706.119873,77.541794 
	C707.778076,79.033455 709.631287,80.308273 711.395081,81.682564 
	C711.395081,81.682564 711.097656,82.006447 711.136963,82.212738 
	C711.345520,83.050301 711.401001,83.742210 711.700562,84.303993 
	C719.713257,99.330566 719.845764,114.593430 713.129150,130.074646 
	C711.926941,132.845688 710.724365,135.616562 709.522034,138.387512 
	C709.522034,138.387512 709.405823,138.343491 709.082275,138.352570 
	C699.050964,147.725693 688.826965,156.302094 675.795349,160.852249 
	C675.166443,161.071823 675.326965,163.552200 675.119812,164.979782 
	C675.119812,164.979782 675.039795,164.969315 675.063721,165.292587 
	C676.123413,166.699188 677.159241,167.782516 678.195007,168.865845 
	C678.195007,168.865845 678.087402,168.916168 678.099426,169.226089 
	C681.879639,174.235123 685.647827,178.934235 689.416016,183.633362 
	C689.273743,183.734070 689.131531,183.834808 689.096558,184.137054 
	C690.203430,185.526199 691.202942,186.713837 692.202515,187.901474 
	C692.202515,187.901474 692.104919,187.914001 692.104614,188.226807 
	C692.902100,189.185699 693.699829,189.831772 694.497620,190.477844 
	C694.497620,190.477844 694.479858,190.569061 694.375732,190.923294 
	C696.333130,193.703262 698.394714,196.128998 700.456299,198.554718 
	C700.456360,198.554703 700.244507,198.776611 700.244690,199.048462 
	C700.949890,201.069489 701.654968,202.818680 702.549988,205.039307 
	C692.145874,205.039307 682.241638,205.065613 672.337769,205.029663 
	C666.180115,205.007309 659.666138,206.647614 654.553406,201.428223 
	C654.553406,201.428223 654.603821,201.195862 654.634644,200.943756 
	C652.969910,198.583359 651.274292,196.475052 649.578735,194.366760 
	C649.720093,194.270859 649.861450,194.174973 649.899658,193.854156 
	C647.386292,190.551071 644.975952,187.472946 642.565674,184.394806 
	C642.565674,184.394806 642.871033,184.182220 642.831177,183.909378 
	C638.930664,177.698776 635.183777,171.680893 631.108948,165.893890 
	C630.335754,164.795731 628.273865,164.115387 626.788025,164.082581 
	C606.847717,163.642242 586.903137,163.400040 566.962341,162.980743 
	C563.098511,162.899490 561.615295,164.992966 561.075439,168.274139 
	C559.384583,178.551483 557.565674,188.813492 556.197144,199.134567 
	C555.798645,202.139938 554.900208,203.103180 551.960449,203.065979 
	C541.973511,202.939499 531.982117,202.905594 521.996643,203.080734 
	C518.507202,203.141953 517.484680,201.676575 518.073303,198.584717 
	C519.803467,189.495712 521.652893,180.428864 523.320923,171.328659 
	C524.954956,162.414093 526.864929,153.514542 527.789124,144.519562 
	C528.296753,139.578568 529.901794,137.885193 534.783325,137.929001 
	C555.424744,138.114227 576.068726,138.046799 596.711609,138.002945 
	C598.466370,137.999222 600.220032,137.487442 601.974243,137.211670 
z"/>
<path fill="#FBFBFA" opacity="1.000000" stroke="none" 
	d="
M295.300079,160.031815 
	C312.803741,128.992279 330.288666,97.942123 347.883331,66.954254 
	C348.550720,65.778816 350.273438,64.473808 351.515320,64.462830 
	C369.650391,64.302612 387.787384,64.352783 406.668762,64.352783 
	C405.052795,87.897530 403.462433,111.068863 401.367645,134.635391 
	C395.601135,136.373215 390.339081,137.715851 384.718384,139.044373 
	C383.905640,139.167130 383.451447,139.304001 382.605347,139.347595 
	C378.261261,140.139816 374.309143,141.025314 370.357025,141.910812 
	C371.260651,128.898865 372.164276,115.886909 373.067902,102.874962 
	C372.583313,102.707481 372.098724,102.540001 371.614105,102.372520 
	C363.471527,117.721481 355.328949,133.070450 346.570374,148.665604 
	C340.794800,149.952026 335.616180,150.906754 330.479431,152.049759 
	C318.742096,154.661530 307.025238,157.365372 295.300079,160.031815 
z"/>
<path fill="#FBFBF9" opacity="1.000000" stroke="none" 
	d="
M426.652802,127.916031 
	C440.030823,107.447655 453.386902,86.964821 466.849945,66.552521 
	C467.540985,65.504753 469.144684,64.437798 470.330383,64.429993 
	C490.125122,64.299637 509.920959,64.337013 530.393677,64.337013 
	C527.783875,78.188164 525.268127,91.539963 522.239563,105.332275 
	C517.506470,106.852913 513.286255,107.933014 508.702148,109.013779 
	C507.881836,109.167053 507.425385,109.319656 506.627106,109.368317 
	C504.548248,109.861473 502.811218,110.458588 500.677795,111.036156 
	C499.512390,111.188438 498.743469,111.360268 497.636719,111.439423 
	C495.570709,111.906593 493.842560,112.466454 491.743835,113.006416 
	C490.897339,113.116425 490.421387,113.246330 489.538147,113.324417 
	C486.878082,113.724991 484.625366,114.177399 482.372620,114.629822 
	C483.233459,110.288498 484.094330,105.947182 484.955200,101.605858 
	C484.637329,101.429184 484.319458,101.252502 484.001587,101.075829 
	C480.111450,106.614326 476.221344,112.152824 471.689331,117.913559 
	C469.582123,118.336594 468.092102,118.428680 466.655304,118.755104 
	C453.315918,121.785751 439.985687,124.856743 426.652802,127.916031 
z"/>
<path fill="#F9E90A" opacity="1.000000" stroke="none" 
	d="
M295.073059,160.232758 
	C307.025238,157.365372 318.742096,154.661530 330.479431,152.049759 
	C335.616180,150.906754 340.794800,149.952026 346.372070,148.958344 
	C337.378967,167.135529 327.998291,185.281982 318.481354,203.356689 
	C317.922241,204.418564 316.270111,205.545074 315.115906,205.556458 
	C300.196167,205.703735 285.274506,205.653961 269.223450,205.653961 
	C278.067993,190.044571 286.457031,175.239136 295.073059,160.232758 
z"/>
<path fill="#FDED03" opacity="1.000000" stroke="none" 
	d="
M201.098862,183.591553 
	C201.526093,183.449646 201.953323,183.307770 202.995132,183.420197 
	C213.679108,181.465622 223.767014,179.337128 233.812653,177.024994 
	C243.612717,174.769379 253.367050,172.315353 263.146912,169.971237 
	C266.515564,169.163788 269.900635,168.424896 274.061005,167.476212 
	C272.446777,171.868103 271.285767,175.026871 270.124786,178.185654 
	C270.124786,178.185654 270.091461,178.068680 269.809753,178.168365 
	C268.391815,180.572006 267.255615,182.875946 266.119446,185.179901 
	C266.119446,185.179901 266.091248,185.067307 265.808228,185.169739 
	C262.700165,190.547958 259.875122,195.823761 257.050079,201.099564 
	C257.050079,201.099564 257.019348,201.028915 256.745087,201.043243 
	C255.487564,202.388184 254.504288,203.718796 253.549774,205.146057 
	C253.578537,205.242722 253.689209,205.411331 253.689209,205.411331 
	C253.025696,205.473236 252.362167,205.535141 251.196106,205.133896 
	C249.757599,204.444931 248.821625,204.021790 247.885696,204.021957 
	C218.891434,204.027023 189.897186,204.073456 160.500153,204.095032 
	C156.090836,203.305405 152.084274,202.534302 147.937103,201.571655 
	C147.556915,201.151321 147.272369,201.019867 146.727921,200.956161 
	C146.513016,200.926575 146.080124,200.897766 145.886597,200.671509 
	C145.130386,200.289276 144.567688,200.133301 144.005478,199.991013 
	C144.005966,200.004684 144.026352,199.985260 144.096466,199.614441 
	C144.344604,198.975388 144.477753,198.520691 144.707077,198.465500 
	C160.686127,194.619217 176.688828,190.869476 192.644470,186.929138 
	C195.559570,186.209244 198.285568,184.723663 201.098862,183.591553 
z"/>
<path fill="#7B7B79" opacity="1.000000" stroke="none" 
	d="
M570.329407,92.372543 
	C568.535278,97.744217 565.146545,99.276100 559.907043,98.936783 
	C552.616760,98.464661 545.273071,98.817970 536.812927,98.817970 
	C540.145508,92.772507 543.102600,87.351471 546.114380,81.961006 
	C548.873718,77.022491 551.574341,72.043800 554.559082,67.243362 
	C555.409363,65.875854 557.132141,64.192184 558.503601,64.147423 
	C567.143127,63.865456 575.796387,64.004601 585.835327,64.004601 
	C580.411560,73.932419 575.462524,82.991096 570.329407,92.372543 
z"/>
<path fill="#A3A3A3" opacity="1.000000" stroke="none" 
	d="
M607.285095,85.368622 
	C603.615417,95.546036 597.744873,101.515549 586.268005,98.815941 
	C584.755005,98.460052 582.999084,99.298035 581.370850,99.228683 
	C579.443176,99.146568 577.531921,98.679970 574.876648,98.264816 
	C581.011169,87.226357 586.896240,76.541183 592.933105,65.942474 
	C593.456970,65.022720 594.970947,64.163986 596.043640,64.140884 
	C603.334595,63.983837 610.630554,64.058739 618.945007,64.058739 
	C614.841553,71.566742 611.156738,78.308716 607.285095,85.368622 
z"/>
<path fill="#CDCDCC" opacity="1.000000" stroke="none" 
	d="
M619.052917,98.699280 
	C615.412415,98.699226 612.258423,98.699226 608.190308,98.699226 
	C610.140137,95.015381 611.753784,91.866280 613.458191,88.767090 
	C617.388733,81.620209 621.275574,74.446114 625.397217,67.410240 
	C626.183167,66.068588 627.933167,64.479118 629.296082,64.423676 
	C636.556091,64.128380 643.834534,64.284645 652.093384,64.284645 
	C645.749695,75.785599 639.877625,86.537727 633.831543,97.191032 
	C633.348328,98.042427 631.680908,98.573936 630.532959,98.630844 
	C626.876282,98.812096 623.205017,98.698837 619.052917,98.699280 
z"/>
<path fill="#DDD32D" opacity="1.000000" stroke="none" 
	d="
M601.644409,137.050598 
	C600.220032,137.487442 598.466370,137.999222 596.711609,138.002945 
	C576.068726,138.046799 555.424744,138.114227 534.783325,137.929001 
	C529.901794,137.885193 528.296753,139.578568 527.789124,144.519562 
	C526.864929,153.514542 524.954956,162.414093 523.320923,171.328659 
	C521.652893,180.428864 519.803467,189.495712 518.073303,198.584717 
	C517.484680,201.676575 518.507202,203.141953 521.996643,203.080734 
	C531.982117,202.905594 541.973511,202.939499 551.960449,203.065979 
	C554.900208,203.103180 555.798645,202.139938 556.197144,199.134567 
	C557.565674,188.813492 559.384583,178.551483 561.075439,168.274139 
	C561.615295,164.992966 563.098511,162.899490 566.962341,162.980743 
	C586.903137,163.400040 606.847717,163.642242 626.788025,164.082581 
	C628.273865,164.115387 630.335754,164.795731 631.108948,165.893890 
	C635.183777,171.680893 638.930664,177.698776 642.666199,183.995300 
	C638.722473,179.124557 634.765686,173.988358 631.147034,168.624054 
	C629.476135,166.147049 627.665771,165.174530 624.639771,165.171387 
	C605.668030,165.151764 586.695251,164.996902 567.726135,164.681778 
	C564.356384,164.625793 563.172241,165.592072 562.700073,168.995728 
	C561.060303,180.817337 559.026062,192.584229 557.114319,204.543762 
	C543.272217,204.543762 529.842712,204.543762 515.668152,204.543762 
	C516.769775,197.975677 517.809326,191.518539 518.941772,185.077728 
	C521.561584,170.177902 524.324463,155.302200 526.792603,140.377579 
	C527.304077,137.284775 528.703735,136.732178 531.440125,136.745132 
	C554.731262,136.855484 578.023010,136.856064 601.644409,137.050598 
z"/>
<path fill="#DAD135" opacity="1.000000" stroke="none" 
	d="
M509.066071,109.013123 
	C513.286255,107.933014 517.506470,106.852913 522.124756,105.711105 
	C519.995789,120.062965 517.545288,134.490494 514.921753,148.886475 
	C511.760773,166.231049 508.457062,183.549622 505.200745,200.876724 
	C504.927216,202.332230 504.544617,203.767242 504.137665,205.538513 
	C490.415741,205.538513 476.837616,205.538513 462.213684,205.538513 
	C468.828949,175.307281 475.415680,145.206390 482.187500,114.867661 
	C484.625366,114.177399 486.878082,113.724991 489.490662,113.665970 
	C488.950592,114.678169 488.016083,115.869072 487.156799,115.817085 
	C483.368439,115.587891 482.869690,118.386612 482.182587,120.904259 
	C481.358124,123.925041 480.797272,127.017975 480.128479,130.081009 
	C475.509796,151.233154 470.855865,172.377747 466.313934,193.546356 
	C465.613556,196.810547 465.430054,200.185623 464.942078,204.024246 
	C477.264282,204.024246 488.717377,204.143188 500.160095,203.853851 
	C501.405518,203.822327 503.369812,201.597900 503.680481,200.114197 
	C505.949402,189.279114 507.890472,178.375168 509.916321,167.489471 
	C513.241333,149.622559 516.580994,131.758240 519.824951,113.876579 
	C520.153503,112.065414 519.869019,110.143021 519.869019,108.235535 
	C515.716003,108.534462 512.391052,108.773788 509.066071,109.013123 
z"/>
<path fill="#DED438" opacity="1.000000" stroke="none" 
	d="
M370.230652,142.183899 
	C374.309143,141.025314 378.261261,140.139816 382.519470,139.670837 
	C380.696228,140.942261 378.605957,142.375305 376.428772,142.522461 
	C372.763977,142.770187 371.734344,144.631439 371.481415,147.831924 
	C371.090210,152.782822 370.317413,157.705734 369.993408,162.659302 
	C369.192169,174.909424 368.847504,187.198303 367.679504,199.410416 
	C367.305725,203.318802 368.269165,204.094360 371.671967,204.071243 
	C383.502716,203.990875 395.336578,204.152634 407.163208,203.917618 
	C408.947845,203.882141 411.345642,202.684830 412.368591,201.248062 
	C423.608002,185.461426 434.602966,169.500992 445.739868,153.640839 
	C447.627411,150.952774 449.872803,148.515945 452.072235,146.092743 
	C452.191589,146.222427 452.433014,146.479279 452.433014,146.479279 
	C439.376434,165.536713 426.336060,184.605362 413.215302,203.618515 
	C412.557709,204.571442 411.208984,205.640747 410.173126,205.649979 
	C395.397675,205.781693 380.620697,205.739853 365.058044,205.739853 
	C366.764496,184.339951 368.434418,163.398453 370.230652,142.183899 
z"/>
<path fill="#E2E2E0" opacity="1.000000" stroke="none" 
	d="
M669.541138,225.625916 
	C672.413330,227.831558 675.016296,229.819717 678.232788,232.276459 
	C676.477173,232.951080 675.526245,233.316498 674.619934,233.664764 
	C674.736877,235.841919 674.854187,238.026520 674.985474,240.470978 
	C669.942749,240.470978 665.335876,240.470978 660.759399,240.470978 
	C660.086243,237.622147 659.445374,234.910049 658.542419,231.088516 
	C660.344543,229.665268 663.221313,227.242523 666.290955,225.095596 
	C666.909241,224.663193 668.259216,225.276993 669.541138,225.625916 
z"/>
<path fill="#E2E2E0" opacity="1.000000" stroke="none" 
	d="
M438.947968,235.007294 
	C438.947845,231.602982 438.947845,228.687805 438.947845,225.772644 
	C439.372253,225.595139 439.796661,225.417633 440.221069,225.240128 
	C442.402435,227.898621 444.583832,230.557114 447.187195,233.729919 
	C447.493225,230.530655 447.741028,227.939758 447.988861,225.348846 
	C448.420441,225.367447 448.851990,225.386047 449.283569,225.404648 
	C449.283569,229.969299 449.283569,234.533966 449.283569,239.098618 
	C449.007294,239.364639 448.731018,239.630661 448.454773,239.896683 
	C446.391663,237.026642 444.328552,234.156586 441.571625,230.321320 
	C441.571625,233.856522 441.571625,236.348663 441.571625,238.840790 
	C441.171417,239.223785 440.771210,239.606766 440.371002,239.989761 
	C438.436157,238.699142 436.494507,237.418564 434.567871,236.115814 
	C430.596252,233.430313 428.676453,236.492722 426.648376,239.118469 
	C426.482117,238.878250 426.421967,238.791321 426.361786,238.704407 
	C426.517181,238.654785 426.687042,238.629593 426.823883,238.548676 
	C426.961304,238.467453 427.142822,238.348587 427.173645,238.215729 
	C428.193848,233.820496 429.198334,229.421585 430.205109,225.023224 
	C430.872284,225.052322 431.539459,225.081406 432.206635,225.110504 
	C433.848053,229.799728 435.489471,234.488953 437.130859,239.178177 
	C437.590363,239.109375 438.049866,239.040588 438.509369,238.971786 
	C438.655609,237.813339 438.801849,236.654877 438.947968,235.007294 
z"/>
<path fill="#DED438" opacity="1.000000" stroke="none" 
	d="
M385.076996,139.058487 
	C390.339081,137.715851 395.601135,136.373215 401.261719,135.080811 
	C401.199036,145.033630 400.737823,154.936188 400.276611,164.838760 
	C400.668823,165.025742 401.061035,165.212738 401.453247,165.399719 
	C408.615753,154.568680 415.778259,143.737625 423.347839,132.839996 
	C423.754913,132.773422 424.058014,133.045547 423.996490,133.393173 
	C416.192535,145.854019 408.450104,157.967255 400.707672,170.080475 
	C400.091064,169.836777 399.474487,169.593079 398.857910,169.349365 
	C396.025940,158.742371 401.804260,148.035843 399.430145,136.877151 
	C396.770355,137.444107 394.411163,138.061172 392.013580,138.425262 
	C389.722168,138.773224 387.390808,138.858002 385.076996,139.058487 
z"/>
<path fill="#EAE142" opacity="1.000000" stroke="none" 
	d="
M270.440063,178.048172 
	C271.285767,175.026871 272.446777,171.868103 274.061005,167.476212 
	C269.900635,168.424896 266.515564,169.163788 263.146912,169.971237 
	C253.367050,172.315353 243.612717,174.769379 233.812653,177.024994 
	C223.767014,179.337128 213.679108,181.465622 203.335403,183.422989 
	C207.457016,181.846649 211.804321,180.323471 216.257370,179.231613 
	C234.758163,174.695312 253.287277,170.274078 271.817719,165.859787 
	C273.564148,165.443756 275.392639,165.372116 277.601990,165.199310 
	C275.599121,169.475586 273.177246,173.693146 270.440063,178.048172 
z"/>
<path fill="#DDD32D" opacity="1.000000" stroke="none" 
	d="
M656.978088,73.285278 
	C652.919800,80.773514 648.861572,88.261757 644.112427,97.024788 
	C648.006104,97.024788 650.719666,97.096596 653.428284,97.012039 
	C663.724731,96.690567 670.602539,101.802628 675.046326,110.661430 
	C677.499512,115.551682 675.691345,124.271751 671.283264,127.941872 
	C679.040527,112.374817 670.303040,98.484894 652.622803,98.842628 
	C649.054688,98.914818 645.484009,98.853058 640.995300,98.853058 
	C646.052002,89.726936 650.674866,81.383774 655.861572,73.002625 
	C656.609619,73.071526 656.793823,73.178398 656.978088,73.285278 
z"/>
<path fill="#E2E2E0" opacity="1.000000" stroke="none" 
	d="
M229.944183,234.056747 
	C229.684006,235.488571 229.651688,237.019684 229.085846,238.318314 
	C228.689697,239.227417 227.564758,239.818954 225.988983,241.264450 
	C225.988983,234.940155 225.988983,230.021027 225.988983,224.750305 
	C232.011169,224.750305 237.860901,224.750305 244.245544,224.750305 
	C244.245544,229.230438 244.306000,233.659760 244.186813,238.084213 
	C244.166626,238.833176 243.373428,239.561279 242.937378,240.299026 
	C242.326706,239.730148 241.588669,239.247299 241.133438,238.573425 
	C240.334229,237.390259 239.708191,236.090118 239.430450,234.438293 
	C240.598114,233.648788 241.344955,233.259949 242.111984,232.675735 
	C242.132187,232.480362 242.047668,232.096741 242.225311,231.806305 
	C242.277908,231.326477 242.152863,231.137070 242.025574,230.698883 
	C242.023331,230.450119 241.957733,229.956924 241.945251,229.537872 
	C237.962448,228.827774 233.992126,228.536713 229.728577,228.249573 
	C229.332596,228.801651 229.229843,229.349838 229.118683,230.205475 
	C229.102921,230.717865 229.095566,230.922791 229.040756,231.314392 
	C228.993286,231.501083 229.085617,231.875122 229.096954,232.186050 
	C229.116623,232.704239 229.124954,232.911484 229.140594,233.356781 
	C229.331146,233.890488 229.596573,234.044464 229.944183,234.056747 
z"/>
<path fill="#DED438" opacity="1.000000" stroke="none" 
	d="
M426.370178,128.048828 
	C439.985687,124.856743 453.315918,121.785751 466.655304,118.755104 
	C468.092102,118.428680 469.582123,118.336594 471.451355,118.170120 
	C465.554047,127.492485 459.252808,136.780548 452.692291,146.273941 
	C452.433014,146.479279 452.191589,146.222427 452.132385,145.743500 
	C457.423035,136.981720 462.772858,128.698868 468.411346,119.969109 
	C458.746948,122.351219 449.291626,124.435234 439.991638,127.068062 
	C434.552277,128.607925 429.360931,131.023773 424.058014,133.045547 
	C424.058014,133.045547 423.754913,132.773422 423.606415,132.633743 
	C424.334473,131.056595 425.211029,129.619110 426.370178,128.048828 
z"/>
<path fill="#EDECD3" opacity="1.000000" stroke="none" 
	d="
M657.322510,73.151581 
	C656.793823,73.178398 656.609619,73.071526 656.149597,72.801918 
	C657.724670,66.068428 661.676514,63.009033 668.809814,64.072495 
	C673.815552,64.818771 678.941406,64.759590 684.347168,65.442093 
	C684.696960,66.137665 684.772034,66.436455 684.905884,66.720459 
	C684.450928,66.757866 683.995911,66.795273 682.907959,66.877548 
	C681.716736,67.149055 681.158569,67.375702 680.600342,67.602341 
	C677.904724,68.208466 675.209167,68.814590 671.986145,69.557541 
	C671.458740,69.694374 671.116333,69.846886 671.116333,69.846886 
	C669.299438,70.231895 667.482605,70.616905 665.053101,71.092758 
	C664.109314,71.235687 663.859924,71.406952 663.692261,71.697395 
	C663.284058,71.750595 662.875793,71.803802 661.899902,71.941315 
	C660.841614,72.292068 660.351013,72.558517 659.860352,72.824966 
	C659.129211,72.889267 658.398132,72.953568 657.322510,73.151581 
z"/>
<path fill="#DDD32D" opacity="1.000000" stroke="none" 
	d="
M670.619690,128.044571 
	C669.840759,129.458496 669.025818,131.959885 667.588013,132.392807 
	C659.411560,134.854736 651.191528,137.804367 642.784607,138.705032 
	C632.750244,139.780014 622.512085,139.001480 612.363220,138.911667 
	C610.638000,138.896408 608.917725,138.307526 607.060181,137.613831 
	C620.077759,137.168121 633.237244,137.324509 646.380554,136.934982 
	C655.198792,136.673645 663.383850,133.987640 670.619690,128.044571 
z"/>
<path fill="#D8D7D5" opacity="1.000000" stroke="none" 
	d="
M523.590820,237.340317 
	C522.269775,236.354202 521.260864,235.190430 519.939392,233.666183 
	C519.474976,235.730179 519.043457,237.648071 518.612000,239.565964 
	C518.246460,239.515854 517.880981,239.465759 517.515503,239.415649 
	C517.515503,234.818329 517.515503,230.220993 517.515503,225.623672 
	C517.849304,225.431488 518.183105,225.239319 518.516907,225.047134 
	C519.989563,227.701767 521.462219,230.356384 523.154968,233.407715 
	C524.736389,230.455658 526.179199,227.762314 527.622009,225.068970 
	C527.992554,225.191696 528.363098,225.314423 528.733643,225.437149 
	C528.733643,230.095108 528.733643,234.753067 528.733643,239.411026 
	C528.309937,239.454987 527.886230,239.498932 527.462463,239.542892 
	C527.186279,237.481903 526.910095,235.420914 526.539856,232.657806 
	C525.475403,234.476181 524.689148,235.819412 523.590820,237.340317 
z"/>
<path fill="#D8D7D5" opacity="1.000000" stroke="none" 
	d="
M574.436157,234.486282 
	C574.159607,236.164291 573.883179,237.842285 573.606689,239.520294 
	C573.181580,239.511765 572.756409,239.503235 572.331299,239.494720 
	C572.331299,234.881897 572.331299,230.269089 572.331299,223.931702 
	C575.086548,227.836441 577.124146,230.724106 580.069580,234.898376 
	C580.069580,230.818314 580.069580,228.108826 580.069580,225.399353 
	C580.557617,225.397202 581.045654,225.395050 581.533691,225.392883 
	C581.533691,229.992035 581.533691,234.591187 581.533691,240.173981 
	C579.460876,237.560776 577.833069,235.508606 575.865906,232.904266 
	C575.174255,231.899246 574.822083,231.446426 573.671204,229.966812 
	C574.071838,232.333710 574.253967,233.409988 574.436157,234.486282 
z"/>
<path fill="#D8D7D5" opacity="1.000000" stroke="none" 
	d="
M349.321686,225.639389 
	C350.151550,227.399231 350.939819,229.353668 351.137024,231.366028 
	C351.399536,234.044937 351.201874,236.768906 351.201874,239.473526 
	C350.671509,239.612930 350.141174,239.752319 349.610809,239.891724 
	C347.595490,237.054031 345.580170,234.216324 343.070282,230.682297 
	C342.901855,234.014450 342.764801,236.725983 342.627716,239.437515 
	C342.152557,239.431427 341.677368,239.425339 341.202209,239.419250 
	C341.202209,234.832962 341.202209,230.246658 341.202209,224.041122 
	C343.855133,227.704819 345.814423,230.410583 348.398285,233.978897 
	C348.655914,230.598297 348.836456,228.229034 349.321686,225.639389 
z"/>
<path fill="#DDD32D" opacity="1.000000" stroke="none" 
	d="
M654.627930,201.778351 
	C659.666138,206.647614 666.180115,205.007309 672.337769,205.029663 
	C682.241638,205.065613 692.145874,205.039307 702.549988,205.039307 
	C701.654968,202.818680 700.949890,201.069489 700.370605,198.960785 
	C702.388489,200.980835 704.280701,203.360382 706.172974,205.739929 
	C705.994263,206.201950 705.815552,206.663971 705.636841,207.125992 
	C691.819519,207.125992 677.997925,206.933868 664.187256,207.236328 
	C659.710876,207.334381 656.528870,206.326202 654.627930,201.778351 
z"/>
<path fill="#DDD32D" opacity="1.000000" stroke="none" 
	d="
M709.808228,138.235474 
	C710.724365,135.616562 711.926941,132.845688 713.129150,130.074646 
	C719.845764,114.593430 719.713257,99.330566 711.700562,84.303993 
	C711.401001,83.742210 711.345520,83.050301 711.274902,82.041618 
	C722.619690,96.109978 722.045654,121.431908 709.808228,138.235474 
z"/>
<path fill="#898785" opacity="1.000000" stroke="none" 
	d="
M385.641785,239.715088 
	C384.187988,237.603516 383.031799,235.594086 381.875641,233.584671 
	C381.430756,233.763977 380.985840,233.943283 380.540955,234.122604 
	C380.078461,236.091232 379.615967,238.059860 379.153473,240.028488 
	C378.643219,239.958786 378.132935,239.889069 377.622681,239.819366 
	C377.622681,235.217377 377.622681,230.615402 377.622681,225.413040 
	C379.378204,225.256393 381.626343,225.055801 384.187714,224.827271 
	C385.343994,229.705856 386.459503,234.338333 387.469604,238.993698 
	C387.503540,239.150177 386.473480,239.537537 385.641785,239.715088 
z"/>
<path fill="#E2E2E0" opacity="1.000000" stroke="none" 
	d="
M398.456970,231.551666 
	C397.592102,233.918411 397.104095,236.493958 396.333954,240.558350 
	C393.973053,235.060883 395.436737,230.523941 394.934387,226.223450 
	C395.336823,225.898590 395.739227,225.573730 396.141632,225.248886 
	C398.384155,227.891068 400.626648,230.533264 403.245636,233.619034 
	C403.549622,230.555832 403.807037,227.961624 404.064484,225.367432 
	C404.483276,225.388443 404.902100,225.409454 405.320892,225.430450 
	C405.320892,230.041229 405.320892,234.651993 405.320892,239.262756 
	C405.048767,239.458786 404.776642,239.654831 404.504517,239.850861 
	C402.614288,237.154053 400.724030,234.457260 398.456970,231.551666 
z"/>
<path fill="#979694" opacity="1.000000" stroke="none" 
	d="
M360.632965,227.883667 
	C359.104736,228.460693 357.994934,229.042755 356.885132,229.624817 
	C357.927368,230.103531 358.966125,230.590088 360.012939,231.058563 
	C360.896759,231.454086 361.789948,231.828629 363.627777,232.622055 
	C360.503571,233.737045 358.517609,234.445816 356.531647,235.154587 
	C356.677612,235.650848 356.823608,236.147095 356.969604,236.643356 
	C359.129364,236.926071 361.289124,237.208771 363.448914,237.491486 
	C363.471130,238.098740 363.493347,238.705994 363.515564,239.313248 
	C360.480469,239.482895 357.445343,239.652542 354.118469,239.838501 
	C354.118469,234.732971 354.118469,230.317810 354.118469,225.467621 
	C357.219543,225.467621 360.243347,225.467621 363.267181,225.467621 
	C363.412018,225.823395 363.556854,226.179153 363.701721,226.534927 
	C362.818268,226.986191 361.934845,227.437454 360.632965,227.883667 
z"/>
<path fill="#CDCDCC" opacity="1.000000" stroke="none" 
	d="
M330.920410,226.644669 
	C331.516785,227.692841 331.889648,228.484192 332.388245,229.542358 
	C331.433441,229.542358 330.969574,229.601547 330.525970,229.531830 
	C328.848907,229.268250 327.178467,228.962814 325.505524,228.673050 
	C325.653900,231.355804 325.802277,234.038544 325.950653,236.721298 
	C327.162354,236.589386 328.374054,236.457474 329.585754,236.325562 
	C329.071686,235.142914 328.557617,233.960266 327.744049,232.088608 
	C329.037170,231.950775 330.593597,231.784882 332.160645,231.617844 
	C332.756500,236.903976 331.156464,239.761124 327.711304,239.692917 
	C323.237915,239.604340 322.471680,236.558945 322.484436,232.820969 
	C322.507996,225.926331 324.914581,223.977737 330.920410,226.644669 
z"/>
<path fill="#BABAB8" opacity="1.000000" stroke="none" 
	d="
M701.324585,233.200378 
	C702.521057,237.003326 700.479004,238.199341 697.740845,239.282547 
	C693.279419,241.047531 690.732117,238.771500 688.096863,235.224075 
	C692.366333,233.171341 696.371338,231.245773 700.690613,229.169052 
	C700.793640,229.800339 701.039001,231.304337 701.324585,233.200378 
z"/>
<path fill="#CDCDCC" opacity="1.000000" stroke="none" 
	d="
M415.622803,228.637756 
	C413.943512,228.835098 411.306732,229.262909 411.286041,229.792969 
	C411.195190,232.116928 411.861572,234.470490 412.253296,236.813293 
	C413.425995,236.566208 414.598663,236.319107 415.771362,236.072021 
	C415.093201,234.934158 414.415039,233.796295 413.334106,231.982651 
	C415.196747,231.874817 416.826416,231.780472 418.596527,231.677994 
	C419.216309,235.880142 418.325256,239.189026 414.209290,239.465012 
	C412.475006,239.581284 409.580475,237.403290 408.919952,235.631851 
	C407.134430,230.843582 408.946625,225.914139 412.277344,225.524399 
	C414.046234,225.317413 416.040039,226.748306 417.851837,227.609192 
	C418.044495,227.700745 417.695648,228.931992 417.597992,229.634521 
	C417.021790,229.394775 416.445587,229.155029 415.622803,228.637756 
z"/>
<path fill="#CDCDCC" opacity="1.000000" stroke="none" 
	d="
M504.071777,228.125290 
	C506.579437,225.954681 510.016144,223.074585 512.319458,226.438095 
	C514.168701,229.138489 513.700256,233.669479 513.502563,237.347427 
	C513.456360,238.206512 510.094269,239.813293 508.705566,239.434525 
	C507.053925,238.984024 505.295197,236.977631 504.666077,235.250778 
	C503.976501,233.357925 504.522339,231.014999 504.275940,228.453827 
	C504.022034,228.039444 504.071777,228.125290 504.071777,228.125290 
M506.905609,232.480850 
	C507.823273,234.049835 508.740936,235.618820 509.658569,237.187805 
	C510.464386,235.993362 511.988373,234.754166 511.917328,233.614380 
	C511.793182,231.621902 510.688660,229.690521 509.994995,227.733521 
	C508.958740,229.018356 507.922485,230.303192 506.905609,232.480850 
z"/>
<path fill="#FBFBF9" opacity="1.000000" stroke="none" 
	d="
M257.911438,238.874466 
	C255.579575,239.425262 254.597733,238.638031 254.719788,236.121490 
	C254.888123,232.650803 254.762009,229.165833 254.762009,225.346298 
	C260.390076,225.346298 265.924255,225.346298 272.121094,225.346298 
	C272.121094,229.275375 272.222260,233.344376 272.021454,237.398422 
	C271.988007,238.073715 270.640198,238.683914 269.477661,238.772705 
	C269.055603,234.653992 269.055603,231.086746 269.055603,227.111053 
	C267.395325,227.111053 266.150360,227.111053 264.905396,227.111053 
	C264.905396,227.111053 264.501770,226.963318 264.120514,226.513962 
	C259.580261,225.479630 257.582977,227.043457 257.984161,231.468933 
	C258.205963,233.915131 257.951294,236.404541 257.911438,238.874466 
z"/>
<path fill="#F9EE34" opacity="1.000000" stroke="none" 
	d="
M160.902924,204.113556 
	C189.897186,204.073456 218.891434,204.027023 247.885696,204.021957 
	C248.821625,204.021790 249.757599,204.444931 250.889465,204.993713 
	C248.992615,205.418442 246.899857,205.520218 244.011765,205.337402 
	C217.133301,205.003204 191.050140,204.950134 164.966980,204.924789 
	C164.334183,204.924164 163.701096,205.232162 163.068146,205.396225 
	C162.614105,205.427414 162.160065,205.458588 161.395477,205.149033 
	C161.005753,204.581573 160.945068,204.349991 160.902924,204.113556 
z"/>
<path fill="#D8D7D5" opacity="1.000000" stroke="none" 
	d="
M563.957397,225.202820 
	C569.120300,227.043274 571.196838,234.674438 567.720581,238.127640 
	C565.303345,240.528915 562.484314,240.292709 560.230103,237.907761 
	C557.113770,234.610641 559.210938,227.059082 563.957397,225.202820 
M566.841064,233.290649 
	C566.587769,230.861221 567.713440,227.350555 563.445068,227.799088 
	C562.594238,227.888504 561.450684,230.576721 561.460632,232.059769 
	C561.472107,233.771805 562.611694,235.476273 563.261414,237.184036 
	C564.447449,236.170624 565.633423,235.157227 566.841064,233.290649 
z"/>
<path fill="#DDD32D" opacity="1.000000" stroke="none" 
	d="
M675.071228,164.593719 
	C675.326965,163.552200 675.166443,161.071823 675.795349,160.852249 
	C688.826965,156.302094 699.050964,147.725693 709.110229,138.408081 
	C701.998840,149.399780 691.109619,155.751633 679.382751,161.036575 
	C677.778748,161.759430 676.468750,163.134537 675.071228,164.593719 
z"/>
<path fill="#C4C4C2" opacity="1.000000" stroke="none" 
	d="
M482.077576,237.870544 
	C482.077576,233.687332 482.077576,229.504120 482.077576,225.320908 
	C483.008148,225.313309 483.938751,225.305710 484.869324,225.298111 
	C484.869324,227.867020 484.589813,230.478882 484.975677,232.988464 
	C485.201904,234.459793 486.487976,235.768173 487.297272,237.149841 
	C488.222900,235.735153 489.545959,234.432175 489.982269,232.879944 
	C490.660706,230.466370 490.736176,227.883286 491.522217,225.789886 
	C492.170746,226.964157 492.364258,227.720596 492.557770,228.477051 
	C492.594604,229.793991 492.964569,231.213425 492.597656,232.406158 
	C491.875336,234.754059 491.304932,238.070862 489.619843,238.934464 
	C488.016510,239.756180 485.072021,237.961029 482.356567,237.613831 
	C481.995972,237.911224 482.077576,237.870544 482.077576,237.870544 
z"/>
<path fill="#A3A3A3" opacity="1.000000" stroke="none" 
	d="
M371.619080,226.144028 
	C372.864471,226.026596 373.716888,225.928040 374.569336,225.829468 
	C374.121826,226.488785 373.761536,227.613586 373.209869,227.716888 
	C371.772522,227.986099 370.251251,227.807480 368.423401,227.807480 
	C368.423401,230.906769 368.423401,233.787949 368.423401,236.773178 
	C370.719055,237.028030 372.865112,237.266281 375.011169,237.504532 
	C374.999115,238.001541 374.987061,238.498535 374.975037,238.995544 
	C372.045746,238.995544 369.116455,238.995544 365.798279,238.995544 
	C365.798279,234.753494 365.798279,230.215088 365.798279,225.640320 
	C367.711273,225.824493 369.468689,225.993698 371.619080,226.144028 
z"/>
<path fill="#D1C841" opacity="1.000000" stroke="none" 
	d="
M163.507660,205.553162 
	C163.701096,205.232162 164.334183,204.924164 164.966980,204.924789 
	C191.050140,204.950134 217.133301,205.003204 243.572067,205.245667 
	C234.995850,205.554611 226.064178,205.752792 217.132156,205.769470 
	C199.403915,205.802582 181.675507,205.735657 163.507660,205.553162 
z"/>
<path fill="#C4C4C2" opacity="1.000000" stroke="none" 
	d="
M453.992340,229.033340 
	C454.175293,227.868729 454.358276,226.704117 454.541260,225.539505 
	C456.986603,226.063568 461.162201,226.032974 461.542419,227.219040 
	C462.552734,230.370712 462.595032,234.253494 461.620850,237.413437 
	C461.231232,238.677368 457.176208,238.857880 454.750824,239.333466 
	C454.603638,239.362335 454.112823,237.638474 454.293304,236.450485 
	C456.511047,236.128052 458.217346,236.085281 459.923706,236.042511 
	C459.843781,233.533142 459.763855,231.023788 459.683960,228.514420 
	C457.786743,228.687393 455.889526,228.860367 453.992340,229.033340 
z"/>
<path fill="#767573" opacity="1.000000" stroke="none" 
	d="
M300.004211,232.910553 
	C299.832703,234.258698 299.341919,236.727219 299.538574,236.783264 
	C301.727173,237.406891 304.022064,237.657425 306.295715,238.009811 
	C305.858490,240.466522 304.508514,240.751831 297.372803,239.204346 
	C297.372803,234.862701 297.372803,230.448380 297.372803,225.513641 
	C300.524780,225.513641 303.712708,225.513641 306.900635,225.513641 
	C306.986145,226.011078 307.071686,226.508530 307.157196,227.005966 
	C305.670288,227.341064 304.198547,227.819809 302.693024,227.978333 
	C300.303131,228.229965 298.269470,228.597275 299.731232,232.160629 
	C300.062897,232.521332 300.004211,232.910553 300.004211,232.910553 
z"/>
<path fill="#898785" opacity="1.000000" stroke="none" 
	d="
M492.897034,228.233002 
	C492.364258,227.720596 492.170746,226.964157 491.908142,225.821075 
	C494.913300,225.287735 497.997375,224.949387 501.056030,225.106216 
	C502.025452,225.155945 502.927094,226.526779 503.965759,227.709167 
	C504.071777,228.125290 504.022034,228.039444 504.065247,228.064606 
	C502.858154,228.089752 501.607910,228.089752 499.510925,228.089752 
	C499.510925,232.276276 499.510925,236.041504 499.510925,239.806747 
	C498.823517,239.845184 498.136108,239.883606 497.448700,239.922043 
	C497.187531,236.062729 496.926361,232.203400 496.651550,228.142334 
	C495.492859,228.090302 494.364563,228.039627 492.897034,228.233002 
z"/>
<path fill="#DEDEDC" opacity="1.000000" stroke="none" 
	d="
M611.324097,238.050690 
	C610.350830,237.837662 609.352844,237.536331 609.373047,237.431274 
	C610.073364,233.798309 610.869873,230.183884 611.706238,226.318909 
	C612.740662,226.318909 614.020813,226.318909 615.623047,226.318909 
	C615.623047,230.025772 615.623047,233.637909 615.623047,237.801453 
	C614.552185,237.871689 613.163147,237.962799 611.324097,238.050690 
z"/>
<path fill="#A3A3A3" opacity="1.000000" stroke="none" 
	d="
M553.978027,227.032364 
	C552.393921,227.416489 550.809875,227.800613 549.160095,228.200684 
	C548.917969,232.083496 548.677124,235.946808 548.436279,239.810120 
	C547.811218,239.771500 547.186218,239.732880 546.561157,239.694260 
	C546.561157,236.063522 546.561157,232.432785 546.561157,228.845139 
	C544.657104,227.973145 543.335144,227.367722 542.013123,226.762299 
	C542.099243,226.135803 542.185364,225.509308 542.271423,224.882812 
	C545.923706,225.331161 549.576050,225.779526 553.701416,226.428513 
	C554.174438,226.629135 553.978027,227.032364 553.978027,227.032364 
z"/>
<path fill="#C4C4C2" opacity="1.000000" stroke="none" 
	d="
M315.818604,236.334137 
	C314.744690,234.904785 313.670776,233.475433 312.094543,231.377487 
	C311.705109,234.517319 311.390930,237.050446 311.076721,239.583572 
	C310.645874,239.564026 310.215027,239.544464 309.784180,239.524918 
	C309.784180,234.827454 309.784180,230.129990 309.784180,224.518311 
	C312.585724,227.685349 314.869843,230.267426 317.468597,232.924515 
	C317.128387,234.111069 316.473511,235.222610 315.818604,236.334137 
z"/>
<path fill="#DDD32D" opacity="1.000000" stroke="none" 
	d="
M685.152832,67.043915 
	C684.772034,66.436455 684.696960,66.137665 684.722168,65.594269 
	C695.876038,66.719635 704.719482,71.918808 711.330933,81.345360 
	C709.631287,80.308273 707.778076,79.033455 706.119873,77.541794 
	C700.164673,72.184784 693.653625,68.017471 685.152832,67.043915 
z"/>
<path fill="#767573" opacity="1.000000" stroke="none" 
	d="
M214.083923,225.931534 
	C215.204422,230.086777 215.888199,234.230179 216.720154,239.271469 
	C214.236938,238.646149 213.199188,238.178101 212.153351,238.159256 
	C208.666611,238.096436 206.238586,237.574280 206.082031,232.993668 
	C205.929825,228.540512 207.524063,226.634857 211.711136,226.355438 
	C212.363266,226.311935 213.002167,226.069916 214.083923,225.931534 
M210.828613,236.884064 
	C217.700027,235.792404 211.947830,230.987442 213.561920,228.022369 
	C211.398117,228.266724 208.461288,228.942413 208.409836,229.792694 
	C208.274689,232.025742 209.396347,234.334854 210.828613,236.884064 
z"/>
<path fill="#62615F" opacity="1.000000" stroke="none" 
	d="
M202.435791,230.559692 
	C201.126190,229.472183 200.121704,228.620499 199.171707,227.815002 
	C195.998840,231.153351 200.891312,236.843765 194.007553,238.890198 
	C194.007553,236.544891 194.008347,234.673019 194.007416,232.801147 
	C194.003708,225.344711 195.469223,224.258621 202.173752,227.145432 
	C202.775177,227.404404 202.570953,229.534439 202.435791,230.559692 
z"/>
<path fill="#DEDEDC" opacity="1.000000" stroke="none" 
	d="
M635.397888,230.006256 
	C635.397888,232.635757 635.397888,235.265274 635.397888,238.265610 
	C633.572510,238.372604 632.179688,238.454254 630.040771,238.579651 
	C630.216614,234.661804 630.298401,231.117203 630.710876,227.611481 
	C630.737671,227.383667 633.304871,227.454758 634.764160,227.925323 
	C634.516479,228.787674 634.194946,229.111496 633.873352,229.435303 
	C634.381531,229.625610 634.889709,229.815933 635.397888,230.006256 
z"/>
<path fill="#1F1F1D" opacity="1.000000" stroke="none" 
	d="
M453.966553,229.471466 
	C455.889526,228.860367 457.786743,228.687393 459.683960,228.514420 
	C459.763855,231.023788 459.843781,233.533142 459.923706,236.042511 
	C458.217346,236.085281 456.511047,236.128052 454.416443,236.115997 
	C453.999054,234.010635 453.969910,231.960114 453.966553,229.471466 
z"/>
<path fill="#898785" opacity="1.000000" stroke="none" 
	d="
M479.000092,231.999817 
	C479.791809,233.928177 480.583496,235.856537 481.726379,237.827728 
	C482.077576,237.870544 481.995972,237.911224 482.035553,237.880447 
	C481.276825,238.412781 480.478485,238.975891 479.680176,239.539001 
	C476.597870,234.697266 473.370178,237.548462 470.035339,239.607407 
	C470.360809,238.082230 470.631195,236.815094 471.364868,235.182068 
	C472.986481,233.895004 474.144867,232.973816 475.303253,232.052643 
	C476.338104,230.921906 477.089874,236.224380 479.000092,231.999817 
z"/>
<path fill="#767573" opacity="1.000000" stroke="none" 
	d="
M167.014862,231.947372 
	C166.542435,235.814819 167.859634,237.373169 171.453293,237.010880 
	C174.510513,236.702682 177.597900,236.693787 180.736755,237.448166 
	C176.066605,237.448166 171.396469,237.448166 166.347794,237.448166 
	C166.347794,234.269501 166.347794,230.898438 166.347794,227.535278 
	C170.878571,227.017990 175.254318,226.412689 179.650803,226.090164 
	C180.761307,226.008698 181.938049,226.830414 183.084351,227.237091 
	C182.563751,227.722778 182.043137,228.208481 181.522522,228.694183 
	C177.761047,228.462845 173.991165,228.321259 170.240845,227.970642 
	C167.442596,227.709045 166.715820,229.064011 167.014862,231.947372 
z"/>
<path fill="#CDCDCC" opacity="1.000000" stroke="none" 
	d="
M478.914520,231.646271 
	C477.089874,236.224380 476.338104,230.921906 475.303253,232.052643 
	C474.144867,232.973816 472.986481,233.895004 471.515869,234.858826 
	C472.367218,231.598892 473.530823,228.296280 474.694397,224.993668 
	C475.201416,225.042236 475.708405,225.090790 476.215393,225.139359 
	C477.086578,227.190475 477.957764,229.241592 478.914520,231.646271 
z"/>
<path fill="#DEDEDC" opacity="1.000000" stroke="none" 
	d="
M337.406982,232.922821 
	C337.402344,235.371185 337.402344,237.381104 337.402344,239.391022 
	C336.860657,239.389725 336.318970,239.388412 335.777283,239.387100 
	C335.777283,234.766586 335.777283,230.146088 335.777283,225.525574 
	C336.180603,225.480377 336.583893,225.435165 336.987213,225.389954 
	C337.128662,227.754761 337.270142,230.119583 337.406982,232.922821 
z"/>
<path fill="#898785" opacity="1.000000" stroke="none" 
	d="
M258.279236,239.025970 
	C257.951294,236.404541 258.205963,233.915131 257.984161,231.468933 
	C257.582977,227.043457 259.580261,225.479630 263.931793,226.411163 
	C263.090057,228.328674 261.556793,229.780518 261.146271,231.500381 
	C260.618774,233.710358 261.077118,236.142853 260.875336,238.458984 
	C260.849030,238.760910 259.424164,238.940979 258.279236,239.025970 
z"/>
<path fill="#DEDEDC" opacity="1.000000" stroke="none" 
	d="
M389.938477,238.080109 
	C389.904236,233.580002 389.904236,229.494568 389.904236,225.409134 
	C390.580688,225.413437 391.257172,225.417740 391.933624,225.422028 
	C391.933624,229.969681 391.933624,234.517319 391.933624,239.064972 
	C391.279999,238.874908 390.626343,238.684860 389.938477,238.080109 
z"/>
<path fill="#898785" opacity="1.000000" stroke="none" 
	d="
M265.093201,227.479523 
	C266.150360,227.111053 267.395325,227.111053 269.055603,227.111053 
	C269.055603,231.086746 269.055603,234.653992 269.025146,238.693649 
	C267.971771,239.733917 266.948853,240.301773 266.108398,240.768326 
	C265.801758,235.979706 265.541412,231.913834 265.093201,227.479523 
z"/>
<path fill="#C4C4C2" opacity="1.000000" stroke="none" 
	d="
M162.980835,232.021698 
	C162.973450,234.494186 162.973450,236.518646 162.973450,239.173706 
	C159.419266,236.332611 159.270203,229.093964 162.560333,225.473114 
	C162.734543,227.956726 162.861389,229.765198 162.980835,232.021698 
z"/>
<path fill="#E2E2E0" opacity="1.000000" stroke="none" 
	d="
M553.944702,227.490692 
	C553.978027,227.032364 554.174438,226.629135 554.131958,226.408936 
	C554.792297,226.249313 556.108459,226.295914 556.110229,226.372498 
	C556.208862,230.697525 556.197937,235.025024 556.197937,239.352280 
	C555.435730,239.382584 554.673584,239.412888 553.911377,239.443207 
	C553.911377,235.611801 553.911377,231.780411 553.944702,227.490692 
z"/>
<path fill="#DDD32D" opacity="1.000000" stroke="none" 
	d="
M689.346802,183.294098 
	C685.647827,178.934235 681.879639,174.235123 678.125854,169.172897 
	C681.852661,173.524796 685.565063,178.239822 689.346802,183.294098 
z"/>
<path fill="#D1C841" opacity="1.000000" stroke="none" 
	d="
M160.500153,204.095032 
	C160.945068,204.349991 161.005753,204.581573 161.089630,204.988632 
	C154.618195,203.539246 148.142075,201.909515 141.456680,199.999557 
	C141.247406,199.719330 141.342316,199.607224 141.667297,199.703125 
	C142.670288,199.861115 143.348328,199.923187 144.026352,199.985260 
	C144.026352,199.985260 144.005966,200.004684 144.181763,200.235168 
	C144.931747,200.609680 145.505936,200.753723 146.080124,200.897766 
	C146.080124,200.897766 146.513016,200.926575 146.855148,201.165009 
	C147.436844,201.655319 147.730316,201.775223 148.077713,201.763184 
	C152.084274,202.534302 156.090836,203.305405 160.500153,204.095032 
z"/>
<path fill="#CDCDCC" opacity="1.000000" stroke="none" 
	d="
M315.941559,236.703857 
	C316.473511,235.222610 317.128387,234.111069 317.681427,232.600403 
	C317.579590,229.920990 317.579590,227.640717 317.579590,225.360443 
	C318.128754,225.362976 318.677948,225.365509 319.227112,225.368042 
	C319.227112,229.919449 319.227112,234.470856 319.227112,240.164215 
	C317.839600,238.808273 316.952057,237.940933 315.941559,236.703857 
z"/>
<path fill="#EAE142" opacity="1.000000" stroke="none" 
	d="
M257.342773,200.924500 
	C259.875122,195.823761 262.700165,190.547958 265.866272,185.171906 
	C263.349976,190.297592 260.492706,195.523514 257.342773,200.924500 
z"/>
<path fill="#595756" opacity="1.000000" stroke="none" 
	d="
M635.799194,230.064423 
	C634.889709,229.815933 634.381531,229.625610 633.873352,229.435303 
	C634.194946,229.111496 634.516479,228.787674 634.957581,228.209976 
	C638.804565,227.325287 642.531921,226.694473 646.259338,226.063660 
	C646.371338,226.515060 646.483398,226.966476 646.595398,227.417877 
	C643.697327,229.993530 639.783386,229.569061 635.799194,230.064423 
z"/>
<path fill="#DDD32D" opacity="1.000000" stroke="none" 
	d="
M642.633789,184.732742 
	C644.975952,187.472946 647.386292,190.551071 649.687134,193.993744 
	C647.285767,191.262405 644.993835,188.166550 642.633789,184.732742 
z"/>
<path fill="#DDD32D" opacity="1.000000" stroke="none" 
	d="
M700.369629,198.229065 
	C698.394714,196.128998 696.333130,193.703262 694.421997,190.926941 
	C696.476013,193.018707 698.379517,195.461060 700.369629,198.229065 
z"/>
<path fill="#DDD32D" opacity="1.000000" stroke="none" 
	d="
M649.639709,194.703796 
	C651.274292,196.475052 652.969910,198.583359 654.618042,201.055939 
	C652.947205,199.293747 651.323975,197.167282 649.639709,194.703796 
z"/>
<path fill="#A3A3A3" opacity="1.000000" stroke="none" 
	d="
M242.047668,232.096741 
	C242.047668,232.096741 242.132187,232.480362 241.684296,232.696686 
	C240.401337,233.070953 239.566254,233.228897 238.731171,233.386841 
	C236.187103,233.376602 233.643051,233.366348 230.408524,233.248566 
	C229.523132,233.133621 229.328217,233.126175 229.133286,233.118744 
	C229.124954,232.911484 229.116623,232.704239 229.551865,232.234985 
	C234.012848,232.014252 238.030258,232.055496 242.047668,232.096741 
z"/>
<path fill="#EAE142" opacity="1.000000" stroke="none" 
	d="
M266.434082,185.037567 
	C267.255615,182.875946 268.391815,180.572006 269.870544,178.168091 
	C269.058289,180.343811 267.903503,182.619522 266.434082,185.037567 
z"/>
<path fill="#DDD32D" opacity="1.000000" stroke="none" 
	d="
M678.168823,168.526169 
	C677.159241,167.782516 676.123413,166.699188 675.076050,165.254166 
	C676.090454,165.990479 677.116516,167.088486 678.168823,168.526169 
z"/>
<path fill="#EAE142" opacity="1.000000" stroke="none" 
	d="
M253.521011,205.049408 
	C254.504288,203.718796 255.487564,202.388184 256.783508,201.046112 
	C256.524353,202.213242 255.952499,203.391785 254.778137,204.769470 
	C253.957413,204.995560 253.739212,205.022476 253.521011,205.049408 
z"/>
<path fill="#DDD32D" opacity="1.000000" stroke="none" 
	d="
M692.172913,187.567474 
	C691.202942,186.713837 690.203430,185.526199 689.313721,183.992493 
	C690.330139,184.842117 691.236755,186.037811 692.172913,187.567474 
z"/>
<path fill="#080800" opacity="1.000000" stroke="none" 
	d="
M180.654236,234.883881 
	C179.716019,234.610336 179.112061,234.255020 178.508087,233.899704 
	C179.023987,233.617661 179.539871,233.335617 180.055771,233.053574 
	C180.366669,233.636429 180.677567,234.219269 180.654236,234.883881 
z"/>
<path fill="#DDD32D" opacity="1.000000" stroke="none" 
	d="
M694.421570,190.175964 
	C693.699829,189.831772 692.902100,189.185699 692.117859,188.179413 
	C692.869446,188.504181 693.607483,189.189133 694.421570,190.175964 
z"/>
<path fill="#FBFBFA" opacity="1.000000" stroke="none" 
	d="
M300.407776,232.954071 
	C300.004211,232.910553 300.062897,232.521332 300.088928,232.326248 
	C301.534119,232.131165 302.953278,232.131165 304.372437,232.131165 
	C304.397217,232.353653 304.421967,232.576141 304.446716,232.798615 
	C303.234924,232.864944 302.023102,232.931274 300.407776,232.954071 
z"/>
<path fill="#FBFBFA" opacity="1.000000" stroke="none" 
	d="
M535.557922,235.681793 
	C536.392822,235.213181 537.519287,235.013458 538.645691,234.813736 
	C538.685852,235.109207 538.726013,235.404678 538.766113,235.700150 
	C537.793884,235.783676 536.821655,235.867188 535.557922,235.681793 
z"/>
<path fill="#595756" opacity="1.000000" stroke="none" 
	d="
M238.745453,233.588730 
	C239.566254,233.228897 240.401337,233.070953 241.664093,232.892059 
	C241.344955,233.259949 240.598114,233.648788 239.454315,234.051300 
	C239.057358,234.064987 238.759750,233.790619 238.745453,233.588730 
z"/>
<path fill="#080800" opacity="1.000000" stroke="none" 
	d="
M200.385986,237.226669 
	C200.528320,236.790451 200.806168,236.524429 201.102829,236.281372 
	C201.115265,236.271210 201.303040,236.475052 201.409149,236.579224 
	C201.114410,236.853165 200.819656,237.127090 200.385986,237.226669 
z"/>
<path fill="#D1C841" opacity="1.000000" stroke="none" 
	d="
M139.563065,199.130859 
	C139.749893,198.838882 140.082092,198.756805 140.758026,198.931152 
	C141.101761,199.187576 141.342316,199.607224 141.342316,199.607224 
	C141.342316,199.607224 141.247406,199.719330 141.200256,199.775635 
	C140.671539,199.668213 140.190002,199.504501 139.563065,199.130859 
z"/>
<path fill="#595756" opacity="1.000000" stroke="none" 
	d="
M229.140594,233.356781 
	C229.328217,233.126175 229.523132,233.133621 229.984680,233.261963 
	C230.251297,233.382874 230.234802,233.782288 230.089493,233.919525 
	C229.596573,234.044464 229.331146,233.890488 229.140594,233.356781 
z"/>
<path fill="#D1C841" opacity="1.000000" stroke="none" 
	d="
M253.549774,205.146057 
	C253.739212,205.022476 253.957413,204.995560 254.505127,204.955170 
	C254.613770,205.165665 254.392883,205.389618 253.930603,205.512451 
	C253.689209,205.411331 253.578537,205.242722 253.549774,205.146057 
z"/>
<path fill="#EAE142" opacity="1.000000" stroke="none" 
	d="
M141.667297,199.703125 
	C141.342316,199.607224 141.101761,199.187576 141.020020,198.959473 
	C141.665848,198.163620 142.315170,197.273911 143.132446,197.075302 
	C162.191299,192.443420 181.268341,187.886383 200.720444,183.453552 
	C198.285568,184.723663 195.559570,186.209244 192.644470,186.929138 
	C176.688828,190.869476 160.686127,194.619217 144.707077,198.465500 
	C144.477753,198.520691 144.344604,198.975388 144.096466,199.614441 
	C143.348328,199.923187 142.670288,199.861115 141.667297,199.703125 
z"/>
<path fill="#DDD32D" opacity="1.000000" stroke="none" 
	d="
M660.156250,72.881622 
	C660.351013,72.558517 660.841614,72.292068 661.617432,72.069801 
	C661.419128,72.388748 660.935608,72.663513 660.156250,72.881622 
z"/>
<path fill="#DDD32D" opacity="1.000000" stroke="none" 
	d="
M680.918945,67.703552 
	C681.158569,67.375702 681.716736,67.149055 682.577637,66.969826 
	C682.332764,67.279747 681.785156,67.542259 680.918945,67.703552 
z"/>
<path fill="#DDD32D" opacity="1.000000" stroke="none" 
	d="
M671.159668,70.040771 
	C671.116333,69.846886 671.458740,69.694374 671.643188,69.714005 
	C671.619507,69.900635 671.411255,70.067650 671.159668,70.040771 
z"/>
<path fill="#DDD32D" opacity="1.000000" stroke="none" 
	d="
M663.928223,71.739372 
	C663.859924,71.406952 664.109314,71.235687 664.670166,71.212128 
	C664.756714,71.559738 664.511536,71.739975 663.928223,71.739372 
z"/>
<path fill="#FDED02" opacity="1.000000" stroke="none" 
	d="
M423.996490,133.393173 
	C429.360931,131.023773 434.552277,128.607925 439.991638,127.068062 
	C449.291626,124.435234 458.746948,122.351219 468.411346,119.969109 
	C462.772858,128.698868 457.423035,136.981720 452.013062,145.613800 
	C449.872803,148.515945 447.627411,150.952774 445.739868,153.640839 
	C434.602966,169.500992 423.608002,185.461426 412.368591,201.248062 
	C411.345642,202.684830 408.947845,203.882141 407.163208,203.917618 
	C395.336578,204.152634 383.502716,203.990875 371.671967,204.071243 
	C368.269165,204.094360 367.305725,203.318802 367.679504,199.410416 
	C368.847504,187.198303 369.192169,174.909424 369.993408,162.659302 
	C370.317413,157.705734 371.090210,152.782822 371.481415,147.831924 
	C371.734344,144.631439 372.763977,142.770187 376.428772,142.522461 
	C378.605957,142.375305 380.696228,140.942261 382.911438,139.764114 
	C383.451447,139.304001 383.905640,139.167130 384.718384,139.044373 
	C387.390808,138.858002 389.722168,138.773224 392.013580,138.425262 
	C394.411163,138.061172 396.770355,137.444107 399.430145,136.877151 
	C401.804260,148.035843 396.025940,158.742371 398.857910,169.349365 
	C399.474487,169.593079 400.091064,169.836777 400.707672,170.080475 
	C408.450104,157.967255 416.192535,145.854019 423.996490,133.393173 
z"/>
<path fill="#FEED02" opacity="1.000000" stroke="none" 
	d="
M508.702148,109.013779 
	C512.391052,108.773788 515.716003,108.534462 519.869019,108.235535 
	C519.869019,110.143021 520.153503,112.065414 519.824951,113.876579 
	C516.580994,131.758240 513.241333,149.622559 509.916321,167.489471 
	C507.890472,178.375168 505.949402,189.279114 503.680481,200.114197 
	C503.369812,201.597900 501.405518,203.822327 500.160095,203.853851 
	C488.717377,204.143188 477.264282,204.024246 464.942078,204.024246 
	C465.430054,200.185623 465.613556,196.810547 466.313934,193.546356 
	C470.855865,172.377747 475.509796,151.233154 480.128479,130.081009 
	C480.797272,127.017975 481.358124,123.925041 482.182587,120.904259 
	C482.869690,118.386612 483.368439,115.587891 487.156799,115.817085 
	C488.016083,115.869072 488.950592,114.678169 489.897949,113.717804 
	C490.421387,113.246330 490.897339,113.116425 491.954834,113.273140 
	C494.349091,112.883873 496.161804,112.207993 497.974518,111.532104 
	C498.743469,111.360268 499.512390,111.188438 500.885254,111.285675 
	C503.315735,110.860580 505.142365,110.166412 506.968964,109.472260 
	C507.425385,109.319656 507.881836,109.167053 508.702148,109.013779 
z"/>
<path fill="#DAD135" opacity="1.000000" stroke="none" 
	d="
M497.636719,111.439423 
	C496.161804,112.207993 494.349091,112.883873 492.325378,113.293037 
	C493.842560,112.466454 495.570709,111.906593 497.636719,111.439423 
z"/>
<path fill="#DAD135" opacity="1.000000" stroke="none" 
	d="
M506.627106,109.368301 
	C505.142365,110.166412 503.315735,110.860580 501.281677,111.305222 
	C502.811218,110.458588 504.548248,109.861473 506.627106,109.368301 
z"/>
<path fill="#EAE142" opacity="1.000000" stroke="none" 
	d="
M145.886597,200.671509 
	C145.505936,200.753723 144.931747,200.609680 144.181274,200.221497 
	C144.567688,200.133301 145.130386,200.289276 145.886597,200.671509 
z"/>
<path fill="#EAE142" opacity="1.000000" stroke="none" 
	d="
M147.937103,201.571655 
	C147.730316,201.775223 147.436844,201.655319 147.070053,201.194595 
	C147.272369,201.019867 147.556915,201.151321 147.937103,201.571655 
z"/>
<path fill="#595756" opacity="1.000000" stroke="none" 
	d="
M230.021820,228.245667 
	C233.992126,228.536713 237.962448,228.827774 241.488205,229.559036 
	C237.366531,229.975159 233.689423,229.951065 230.004120,229.646942 
	C230.004562,228.993149 230.013199,228.619415 230.021820,228.245667 
z"/>
<path fill="#A3A3A3" opacity="1.000000" stroke="none" 
	d="
M230.012299,229.926971 
	C233.689423,229.951065 237.366531,229.975159 241.500702,229.978088 
	C241.957733,229.956924 242.023331,230.450119 241.562820,230.733429 
	C237.097610,231.053726 233.092926,231.090714 229.088226,231.127701 
	C229.095566,230.922791 229.102921,230.717865 229.339050,230.238037 
	C229.567856,229.963135 230.012299,229.926971 230.012299,229.926971 
z"/>
<path fill="#010101" opacity="1.000000" stroke="none" 
	d="
M229.040756,231.314392 
	C233.092926,231.090714 237.097610,231.053726 241.565063,230.982208 
	C242.152863,231.137070 242.277908,231.326477 242.225311,231.806305 
	C238.030258,232.055496 234.012848,232.014252 229.540527,231.924057 
	C229.085617,231.875122 228.993286,231.501083 229.040756,231.314392 
z"/>
<path fill="#62615F" opacity="1.000000" stroke="none" 
	d="
M230.004120,229.646942 
	C230.012299,229.926971 229.567856,229.963135 229.347473,229.930573 
	C229.229843,229.349838 229.332596,228.801651 229.728577,228.249573 
	C230.013199,228.619415 230.004562,228.993149 230.004120,229.646942 
z"/>
<path fill="#010101" opacity="1.000000" stroke="none" 
	d="
M574.768066,234.122650 
	C574.253967,233.409988 574.071838,232.333710 573.671204,229.966812 
	C574.822083,231.446426 575.174255,231.899246 575.610352,232.662918 
	C575.496094,233.235519 575.298035,233.497269 574.768066,234.122650 
z"/>
<path fill="#080800" opacity="1.000000" stroke="none" 
	d="
M506.895935,232.034439 
	C507.922485,230.303192 508.958740,229.018356 509.994995,227.733521 
	C510.688660,229.690521 511.793182,231.621902 511.917328,233.614380 
	C511.988373,234.754166 510.464386,235.993362 509.658569,237.187805 
	C508.740936,235.618820 507.823273,234.049835 506.895935,232.034439 
z"/>
<path fill="#1F1F1D" opacity="1.000000" stroke="none" 
	d="
M566.830261,233.717224 
	C565.633423,235.157227 564.447449,236.170624 563.261414,237.184036 
	C562.611694,235.476273 561.472107,233.771805 561.460632,232.059769 
	C561.450684,230.576721 562.594238,227.888504 563.445068,227.799088 
	C567.713440,227.350555 566.587769,230.861221 566.830261,233.717224 
z"/>
<path fill="#010101" opacity="1.000000" stroke="none" 
	d="
M210.422943,236.748871 
	C209.396347,234.334854 208.274689,232.025742 208.409836,229.792694 
	C208.461288,228.942413 211.398117,228.266724 213.561920,228.022369 
	C211.947830,230.987442 217.700027,235.792404 210.422943,236.748871 
z"/>
</svg>